<svg width="42" height="42" viewBox="0 0 42 42" fill="none" xmlns="http://www.w3.org/2000/svg">
<g clip-path="url(#clip0_386_2069)">
<path d="M41 21.201V40.865C41 40.865 36.7558 41.3079 34.1932 40.5893C32.4553 40.102 29.9904 38.6597 29.9904 38.6597C29.9904 38.6597 24.0973 41.1722 15.92 39.5785C10.1182 38.4478 4.22513 34.8004 1.89529 32.0897C1.30029 31.3974 1.28382 31.1597 1.11868 30.4816C0.931939 29.7148 0.935944 28.9195 1.34713 27.4953C3.54135 19.895 5.3672 13.6662 7.51431 6.45295C7.66374 5.95094 7.86489 5.6188 8.3366 5.39624C12.0369 3.65037 14.4124 2.73095 17.7473 1.21504C18.105 1.05247 18.644 0.943 19.0264 1.03157C19.392 1.1162 19.8944 1.44506 19.8944 1.44506C19.8944 1.44506 21.8131 3.83381 22.8638 5.21213C23.1243 5.55386 23.1625 6.00626 22.8638 6.31478C21.6098 7.61009 19.8276 9.18359 18.9913 9.90948C18.7278 10.1382 18.3334 10.1218 18.0671 9.89636C17.7399 9.61946 17.2801 9.27096 16.8336 9.07142C16.1046 8.74553 15.017 8.81712 14.3211 9.20959C13.4776 9.68527 12.9506 10.5876 12.9506 11.7362C12.9506 16.2383 14.29 25.841 14.29 25.841C15.6605 23.9113 17.7276 22.3342 21.9502 22.9468C26.3814 23.5897 27.5 26.5 27.5 26.5C27.5 26.5 30.6299 20.9709 35.2896 20.2821C38.5788 19.7959 41 21.201 41 21.201Z" fill="#FFD4C5" stroke="#DB3700" stroke-width="2"/>
</g>
<defs>
<clipPath id="clip0_386_2069">
<rect width="42" height="42" fill="white"/>
</clipPath>
</defs>
</svg>
