<svg width="64" height="52" viewBox="0 0 64 52" fill="none" xmlns="http://www.w3.org/2000/svg">
<g clip-path="url(#clip0_386_1963)">
<path d="M4.53451 27.1812C3.66512 13.427 15.1784 2.62732 28.882 1.16239C44.7795 -0.537084 59.2868 11.3162 58.2899 26.7032C57.3537 41.1525 43.395 50.478 29.3594 49.5232C16.6618 48.6594 5.36212 40.2743 4.53451 27.1812Z" stroke="#543DFC" stroke-width="2"/>
<path d="M29.8365 18.4422C31.2685 13.6205 28.2133 10.4219 28.2133 10.4219C28.2133 10.4219 25.4321 11.8801 23.5824 12.6657C21.1999 13.6775 16.9465 14.814 16.9465 14.814C16.9465 14.814 16.6457 19.4448 18.665 21.3544C23.0569 25.5077 28.5671 22.7162 29.8365 18.4422Z" fill="url(#paint0_radial_386_1963)" stroke="black" stroke-width="0.0954803"/>
<path d="M21.8639 17.0601C21.7024 15.1225 22.7548 13.223 24.6805 12.9545C26.7308 12.6686 28.3949 14.563 28.4997 16.6305C28.6012 18.6311 27.3036 20.5865 25.3012 20.6407C23.3635 20.6931 22.0248 18.9918 21.8639 17.0601Z" fill="#00132B" stroke="black" stroke-width="0.0954803"/>
<path d="M22.4498 16.964C22.3178 15.2856 23.178 13.6403 24.7523 13.4077C26.4283 13.16 27.7887 14.801 27.8744 16.5918C27.9573 18.3248 26.8966 20.0185 25.2596 20.0654C23.6757 20.1108 22.5813 18.6371 22.4498 16.964Z" fill="url(#paint1_radial_386_1963)" stroke="black" stroke-width="0.0954803"/>
<path d="M23.2105 16.9357C23.1179 15.8088 23.7215 14.7041 24.8263 14.5479C26.0024 14.3817 26.9571 15.4834 27.0172 16.6859C27.0754 17.8494 26.331 18.9866 25.1823 19.0181C24.0708 19.0486 23.3028 18.0592 23.2105 16.9357Z" fill="#00132B" stroke="black" stroke-width="0.0954803"/>
<path d="M25.6351 17.6826C25.6483 17.2212 26.033 16.8578 26.4944 16.871C26.9425 16.8838 27.2932 17.2346 27.306 17.6826C27.3192 18.144 26.9559 18.5287 26.4944 18.5419C26.02 18.5555 25.6216 18.157 25.6351 17.6826Z" fill="white"/>
<path d="M24.3942 15.7729C24.184 16.5739 23.3883 17.0513 22.5801 16.8709C21.8122 16.6995 21.3159 16.0314 21.3866 15.2477C21.4588 14.4459 22.1091 13.8614 22.9142 13.8633C23.8577 13.8655 24.6336 14.8603 24.3942 15.7729Z" fill="white"/>
<path d="M25.6351 17.6826C25.6483 17.2212 26.033 16.8578 26.4944 16.871C26.9425 16.8838 27.2932 17.2346 27.306 17.6826C27.3192 18.144 26.9559 18.5287 26.4944 18.5419C26.02 18.5555 25.6216 18.157 25.6351 17.6826Z" stroke="white" stroke-width="0.0954803"/>
<path d="M24.3942 15.7729C24.184 16.5739 23.3883 17.0513 22.5801 16.8709C21.8122 16.6995 21.3159 16.0314 21.3866 15.2477C21.4588 14.4459 22.1091 13.8614 22.9142 13.8633C23.8577 13.8655 24.6336 14.8603 24.3942 15.7729Z" stroke="white" stroke-width="0.0954803"/>
<path d="M39.9103 12.6674C37.9253 11.7871 35.0885 9.89844 35.0885 9.89844C35.0885 9.89844 33.2852 11.9825 32.8447 13.6222C31.7935 17.5356 34.4278 22.1431 38.3348 23.2179C41.7998 24.1711 44.5824 22.0203 45.6868 18.8736C46.2548 17.2551 45.6868 14.4815 45.6868 14.4815C45.6868 14.4815 42.0718 13.626 39.9103 12.6674Z" fill="url(#paint2_radial_386_1963)" stroke="black" stroke-width="0.0954803"/>
<path d="M34.4742 17.0406C34.3128 15.1029 35.3651 13.2035 37.2909 12.935C39.3412 12.6491 41.0053 14.5435 41.1101 16.6109C41.2115 18.6116 39.914 20.5669 37.9115 20.6211C35.9739 20.6735 34.6351 18.9722 34.4742 17.0406Z" fill="#00132B" stroke="black" stroke-width="0.0954803"/>
<path d="M35.0601 17.0421C34.9282 15.3637 35.7884 13.7184 37.3626 13.4858C39.0387 13.2382 40.399 14.8791 40.4847 16.6699C40.5676 18.4029 39.5069 20.0966 37.87 20.1435C36.2861 20.1889 35.1917 18.7153 35.0601 17.0421Z" fill="url(#paint3_radial_386_1963)" stroke="black" stroke-width="0.0954803"/>
<path d="M35.8208 16.8186C35.7282 15.6916 36.3319 14.5869 37.4366 14.4308C38.6128 14.2645 39.5674 15.3663 39.6276 16.5687C39.6857 17.7322 38.9414 18.8694 37.7927 18.9009C36.6811 18.9314 35.9131 17.942 35.8208 16.8186Z" fill="#00132B" stroke="black" stroke-width="0.0954803"/>
<path d="M38.4359 17.7573C38.4491 17.2959 38.8338 16.9325 39.2952 16.9457C39.7433 16.9585 40.094 17.3093 40.1068 17.7573C40.12 18.2187 39.7566 18.6034 39.2952 18.6166C38.8208 18.6302 38.4224 18.2317 38.4359 17.7573Z" fill="white"/>
<path d="M37.5768 15.1791C37.3667 15.9802 36.5709 16.4576 35.7627 16.2772C34.9948 16.1057 34.4986 15.4376 34.5692 14.654C34.6414 13.8521 35.2917 13.2676 36.0969 13.2695C37.0403 13.2718 37.8162 14.2665 37.5768 15.1791Z" fill="white"/>
<path d="M38.4359 17.7573C38.4491 17.2959 38.8338 16.9325 39.2952 16.9457C39.7433 16.9585 40.094 17.3093 40.1068 17.7573C40.12 18.2187 39.7566 18.6034 39.2952 18.6166C38.8208 18.6302 38.4224 18.2317 38.4359 17.7573Z" stroke="white" stroke-width="0.0954803"/>
<path d="M37.5768 15.1791C37.3667 15.9802 36.5709 16.4576 35.7627 16.2772C34.9948 16.1057 34.4986 15.4376 34.5692 14.654C34.6414 13.8521 35.2917 13.2676 36.0969 13.2695C37.0403 13.2718 37.8162 14.2665 37.5768 15.1791Z" stroke="white" stroke-width="0.0954803"/>
<path d="M30.7916 26.8932C17.5247 27.2518 6.34863 31.4763 6.34863 31.4763V49.8563C6.34863 49.8563 21.6105 46.4827 31.3645 46.5145C41.5102 46.5477 56.8099 49.9996 56.8099 49.9996L57.3828 32.1924C57.3828 32.1924 43.1563 26.559 30.7916 26.8932Z" fill="#D9D6FF" stroke="#543DFC" stroke-width="2"/>
<path d="M53.0381 33.2428C54.1362 30.9031 55.8126 31.7957 57.478 32.3834C59.9127 33.2428 61.6791 34.7701 61.9655 36.7755C62.3201 39.258 60.6766 40.3083 60.6766 40.3083C60.6766 40.3083 62.6134 42.6929 61.9655 44.1275C61.6615 44.8007 60.6766 45.512 60.6766 45.512C60.6766 45.512 62.122 47.3839 61.6791 48.7102C61.0439 50.6123 58.7041 50.9286 56.7619 50.4292C54.429 49.8293 51.9423 47.657 53.0381 45.512C53.5138 44.5809 55.091 43.7933 55.091 43.7933C55.091 43.7933 51.966 41.7401 53.0381 39.258C53.3937 38.4347 54.6136 37.5871 54.6136 37.5871C54.6136 37.5871 52.2714 34.8765 53.0381 33.2428Z" fill="#D9D6FF"/>
<path d="M5.63229 31.8584C7.30117 31.2807 9.15549 31.2082 10.0721 32.7177C11.0238 34.285 8.54444 37.1575 8.54444 37.1575C8.54444 37.1575 9.9367 37.6606 10.2631 38.5894C10.8837 40.3554 9.88116 42.5996 7.97156 43.507C9.17615 43.6209 9.72191 44.0674 10.0721 45.2256C10.6927 47.2781 7.92381 49.5693 5.01167 50.1902C3.33169 50.5485 2.17139 49.8762 1.66986 48.2332C1.31604 47.0742 2.4337 45.2256 2.4337 45.2256C2.4337 45.2256 1.45719 44.5433 1.14472 43.8889C0.45883 42.4524 2.4337 40.0219 2.4337 40.0219C2.4337 40.0219 1.45035 39.0949 1.33567 37.8736C1.08216 35.1737 3.1498 32.7177 5.63229 31.8584Z" fill="#D9D6FF"/>
<path d="M54.6137 37.5872C54.6137 37.5872 52.2715 34.8766 53.0382 33.2429C54.1363 30.9032 55.8127 31.7958 57.4781 32.3835C59.9128 33.2429 61.6792 34.7702 61.9656 36.7756C62.3202 39.2581 60.6767 40.3084 60.6767 40.3084M54.6137 37.5872C54.6137 37.5872 53.3938 38.4348 53.0382 39.2581C51.9661 41.7402 55.0911 43.7934 55.0911 43.7934M54.6137 37.5872C54.6137 37.5872 56.1902 37.5091 57.1439 37.7782C58.7771 38.2389 60.6767 40.3084 60.6767 40.3084M60.6767 40.3084C60.6767 40.3084 62.6135 42.693 61.9656 44.1276C61.6616 44.8008 60.6767 45.5121 60.6767 45.5121M55.0911 43.7934C55.0911 43.7934 53.5139 44.581 53.0382 45.5121C51.9424 47.6571 54.4291 49.8294 56.762 50.4293C58.7042 50.9287 61.044 50.6124 61.6792 48.7103C62.1221 47.384 60.6767 45.5121 60.6767 45.5121M55.0911 43.7934C55.0911 43.7934 56.5658 43.8956 57.4781 44.1276C58.7972 44.4631 60.6767 45.5121 60.6767 45.5121M8.54444 37.1575C8.54444 37.1575 11.0238 34.285 10.0721 32.7177C9.15549 31.2082 7.30117 31.2807 5.63229 31.8584C3.1498 32.7177 1.08216 35.1737 1.33567 37.8736C1.45035 39.0949 2.4337 40.0219 2.4337 40.0219M8.54444 37.1575C8.54444 37.1575 9.9367 37.6606 10.2631 38.5894C10.8837 40.3554 9.88115 42.5996 7.97156 43.507M8.54444 37.1575C8.54444 37.1575 6.7136 37.4238 5.63229 37.8736C4.24299 38.4516 2.4337 40.0219 2.4337 40.0219M2.4337 40.0219C2.4337 40.0219 0.45883 42.4524 1.14472 43.8889C1.45719 44.5433 2.4337 45.2256 2.4337 45.2256M7.97156 43.507C9.17615 43.6209 9.72191 44.0674 10.0721 45.2256C10.6927 47.2781 7.92381 49.5693 5.01167 50.1902C3.33169 50.5485 2.17139 49.8762 1.66986 48.2333C1.31604 47.0742 2.4337 45.2256 2.4337 45.2256M7.97156 43.507C6.90892 43.5173 6.04212 43.6291 5.01167 43.8889C3.76218 44.2039 2.4337 45.2256 2.4337 45.2256" stroke="#543DFC" stroke-width="2"/>
<path d="M34.2776 8.1796C34.1294 7.98782 34.0866 7.74822 34.0866 7.36716C34.0866 7.20678 34.0389 6.93823 33.7524 6.9861C33.466 7.03397 33.5137 7.2548 33.5137 7.41518C33.5137 7.79651 33.5256 7.93851 33.6092 8.32282C34.0866 10.5183 36.5691 11.9511 39.0516 12.9536C41.6399 13.9989 44.2553 14.6245 45.9262 14.911C46.1679 14.9524 46.4596 15.0447 46.5468 14.8155C46.656 14.5284 46.2176 14.3969 45.9739 14.3375C44.0166 13.8601 42.3112 13.3309 40.0064 12.333C35.3756 10.3279 35.0892 9.22989 34.2776 8.1796Z" fill="#543DFC"/>
<path d="M29.1206 7.17636C28.9518 7.14399 28.8351 7.29151 28.8351 7.4634C28.8351 7.60603 28.8351 7.85301 28.7396 8.03628C27.5461 10.3272 26.0576 10.9974 23.8224 12.0942C21.1967 13.3826 19.4294 13.8122 16.8517 14.4329C16.5731 14.4999 16.3584 14.5188 16.3749 14.7199C16.3906 14.9112 16.6609 15.0057 17.0428 14.9103C19.3697 14.3286 20.9571 14.0987 23.2972 13.24C25.2537 12.522 28.0093 11.3298 28.9306 9.22919C29.2237 8.56083 29.4071 7.94021 29.3593 7.51055C29.3427 7.36115 29.2894 7.20874 29.1206 7.17636Z" fill="#543DFC"/>
<path d="M34.2776 8.1796C34.1294 7.98782 34.0866 7.74822 34.0866 7.36716C34.0866 7.20678 34.0389 6.93823 33.7524 6.9861C33.466 7.03397 33.5137 7.2548 33.5137 7.41518C33.5137 7.79651 33.5256 7.93851 33.6092 8.32282C34.0866 10.5183 36.5691 11.9511 39.0516 12.9536C41.6399 13.9989 44.2553 14.6245 45.9262 14.911C46.1679 14.9524 46.4596 15.0447 46.5468 14.8155C46.656 14.5284 46.2176 14.3969 45.9739 14.3375C44.0166 13.8601 42.3112 13.3309 40.0064 12.333C35.3756 10.3279 35.0892 9.22989 34.2776 8.1796Z" stroke="#543DFC" stroke-width="0.0954803"/>
<path d="M29.1206 7.17636C28.9518 7.14399 28.8351 7.29151 28.8351 7.4634C28.8351 7.60603 28.8351 7.85301 28.7396 8.03628C27.5461 10.3272 26.0576 10.9974 23.8224 12.0942C21.1967 13.3826 19.4294 13.8122 16.8517 14.4329C16.5731 14.4999 16.3584 14.5188 16.3749 14.7199C16.3906 14.9112 16.6609 15.0057 17.0428 14.9103C19.3697 14.3286 20.9571 14.0987 23.2972 13.24C25.2537 12.522 28.0093 11.3298 28.9306 9.22919C29.2237 8.56083 29.4071 7.94021 29.3593 7.51055C29.3427 7.36115 29.2894 7.20874 29.1206 7.17636Z" stroke="#543DFC" stroke-width="0.0954803"/>
<path d="M20.1486 33.5479C21.0576 33.5479 21.8329 33.7349 22.4745 34.1092C23.1161 34.4835 23.4369 34.8807 23.4369 35.3008C23.4369 35.4154 23.4102 35.5148 23.3567 35.5988C23.3109 35.6752 23.2498 35.7324 23.1734 35.7706C23.1046 35.8011 23.0283 35.8165 22.9442 35.8165C22.8067 35.8165 22.6005 35.7476 22.3255 35.6102C22.0505 35.465 21.745 35.3237 21.4089 35.1862C21.0728 35.0411 20.7635 34.9686 20.4808 34.9686C20.0302 34.9686 19.8048 35.152 19.8048 35.5186C19.8048 35.6332 19.8392 35.7438 19.908 35.8508C19.9844 35.9501 20.1027 36.057 20.2632 36.1716C20.4236 36.2785 20.5801 36.374 20.7329 36.458C20.8857 36.542 21.0957 36.6567 21.3631 36.8018C21.6304 36.9393 21.8558 37.0615 22.0391 37.1684C22.6272 37.5045 23.0397 37.8254 23.2765 38.1309C23.5133 38.4365 23.6317 38.7878 23.6317 39.185C23.6317 40.7662 22.5661 41.5568 20.435 41.5568C20.0149 41.5568 19.6063 41.5147 19.2091 41.4306C18.8195 41.3466 18.4758 41.2359 18.1779 41.0984C17.8876 40.9609 17.6279 40.8082 17.3987 40.6402C17.1772 40.4721 17.0092 40.3001 16.8946 40.1245C16.78 39.9488 16.7227 39.7847 16.7227 39.6319C16.7227 39.4638 16.7762 39.3225 16.8832 39.208C16.9977 39.0857 17.162 39.0246 17.3758 39.0246C17.5362 39.0246 17.922 39.1277 18.5331 39.334C19.1441 39.5325 19.6368 39.6319 20.0111 39.6319C20.3548 39.6319 20.5267 39.5134 20.5267 39.2766C20.5267 39.2079 20.5114 39.1467 20.4808 39.0933C20.4579 39.0322 20.4121 38.975 20.3434 38.9215C20.2823 38.8604 20.2097 38.8069 20.1257 38.7611C20.0493 38.7076 19.9385 38.6426 19.7934 38.5662C19.6559 38.4899 19.5146 38.4136 19.3695 38.3372C19.232 38.2608 19.0486 38.1614 18.8195 38.0392C18.5903 37.917 18.3688 37.7948 18.155 37.6726C17.8723 37.5122 17.6279 37.3136 17.4217 37.0768C17.2231 36.84 17.0779 36.607 16.9863 36.3778C16.8946 36.141 16.8488 35.9234 16.8488 35.7248C16.8488 35.0832 17.1352 34.56 17.7081 34.1551C18.281 33.7503 19.0945 33.5479 20.1486 33.5479ZM28.1896 38.7611C28.1896 38.3639 28.1399 38.0163 28.0406 37.7184C27.9413 37.4128 27.7962 37.2602 27.6053 37.2602C27.4754 37.2602 27.3608 37.3365 27.2615 37.4893C27.1622 37.6421 27.0897 37.8292 27.0438 38.0507C26.998 38.2722 26.9751 38.509 26.9751 38.7611C26.9751 39.1507 27.0286 39.4944 27.1355 39.7923C27.2424 40.0826 27.3952 40.2276 27.5938 40.2276C27.7924 40.2276 27.9413 40.0826 28.0406 39.7923C28.1399 39.502 28.1896 39.1583 28.1896 38.7611ZM27.5938 41.5568C26.998 41.5568 26.4595 41.4498 25.9783 41.236C25.5047 41.0221 25.1228 40.7012 24.8325 40.2734C24.5499 39.8457 24.4086 39.3453 24.4086 38.7725C24.4086 37.9017 24.7065 37.2105 25.3023 36.6987C25.8981 36.187 26.6619 35.931 27.5938 35.931C28.5257 35.931 29.2857 36.187 29.8739 36.6987C30.462 37.2105 30.7561 37.9017 30.7561 38.7725C30.7561 39.6356 30.4544 40.3155 29.851 40.812C29.2552 41.3085 28.5028 41.5568 27.5938 41.5568ZM34.1803 40.2505C34.1803 40.7088 34.0848 41.0297 33.8939 41.213C33.7029 41.3887 33.363 41.4766 32.8742 41.4766C32.4235 41.4766 32.118 41.3733 31.9575 41.1671C31.7971 40.9532 31.7169 40.6058 31.7169 40.1245V37.306C31.7169 37.0463 31.7628 36.8209 31.8544 36.63C31.9461 36.4314 32.0798 36.2785 32.2554 36.1716C32.4311 36.0646 32.6374 36.0112 32.8742 36.0112C33.4547 36.0112 33.8366 36.1793 34.0199 36.5154C34.4629 36.1793 34.8907 36.0112 35.3032 36.0112C36.1052 36.0112 36.5062 36.3932 36.5062 37.157C36.5062 37.4626 36.4184 37.7107 36.2427 37.9017C36.067 38.0926 35.8379 38.1882 35.5552 38.1882C35.3872 38.1882 35.2497 38.1537 35.1428 38.085C35.0435 38.0163 34.948 37.9475 34.8563 37.8788C34.7723 37.81 34.673 37.7757 34.5584 37.7757C34.3904 37.7757 34.2643 37.833 34.1803 37.9476V40.2505ZM39.5847 40.2505C39.5847 40.7088 39.4892 41.0297 39.2982 41.213C39.1073 41.3887 38.7673 41.4766 38.2785 41.4766C37.8278 41.4766 37.5223 41.3733 37.3619 41.1671C37.2015 40.9532 37.1213 40.6058 37.1213 40.1245V37.306C37.1213 37.0463 37.1671 36.8209 37.2588 36.63C37.3504 36.4314 37.4841 36.2785 37.6598 36.1716C37.8355 36.0646 38.0417 36.0112 38.2785 36.0112C38.859 36.0112 39.2409 36.1793 39.4243 36.5154C39.8673 36.1793 40.295 36.0112 40.7075 36.0112C41.5095 36.0112 41.9106 36.3932 41.9106 37.157C41.9106 37.4626 41.8227 37.7107 41.647 37.9017C41.4713 38.0926 41.2422 38.1882 40.9596 38.1882C40.7915 38.1882 40.654 38.1537 40.5471 38.085C40.4478 38.0163 40.3523 37.9475 40.2607 37.8788C40.1766 37.81 40.0773 37.7757 39.9628 37.7757C39.7947 37.7757 39.6687 37.833 39.5847 37.9476V40.2505ZM48.4607 38.2454C48.4607 39.5516 48.4225 40.4644 48.3461 40.9838C48.285 41.4497 48.1895 41.8508 48.0596 42.1869C47.9298 42.5307 47.7465 42.8323 47.5097 43.092C47.2729 43.3593 46.9712 43.558 46.6045 43.6879C46.2379 43.8177 45.8025 43.8827 45.2983 43.8827C44.8935 43.8827 44.5154 43.8215 44.164 43.6992C43.8203 43.5847 43.5453 43.4396 43.3391 43.264C43.1405 43.0958 42.9839 42.9279 42.8693 42.7598C42.7548 42.5918 42.6975 42.4466 42.6975 42.3244C42.6975 42.2022 42.7357 42.0876 42.812 41.9807C42.8961 41.8814 43.0068 41.8316 43.1443 41.8316C43.2436 41.8316 43.3582 41.8623 43.488 41.9234C43.6255 41.9845 43.7554 42.0533 43.8776 42.1296C43.9998 42.206 44.1449 42.2747 44.313 42.3358C44.481 42.3969 44.6453 42.4275 44.8057 42.4275C45.2181 42.4275 45.5084 42.3243 45.6764 42.1181C45.8521 41.9119 45.94 41.6179 45.94 41.236C45.8101 41.2894 45.6841 41.3353 45.5619 41.3734C45.4397 41.4116 45.3213 41.4421 45.2067 41.465C45.0921 41.4879 44.9814 41.5032 44.8744 41.5108C44.7751 41.5185 44.6758 41.5224 44.5765 41.5224C44.1258 41.5224 43.7401 41.3963 43.4193 41.1442C43.0985 40.8921 42.8655 40.5829 42.7204 40.2162C42.5829 39.8419 42.5141 39.4408 42.5141 39.0131C42.5141 38.5853 42.518 38.2226 42.5256 37.9247C42.5409 37.6268 42.5676 37.3633 42.6058 37.1341C42.644 36.8973 42.686 36.7102 42.7318 36.5727C42.7853 36.4352 42.8579 36.3243 42.9495 36.2403C43.0412 36.1487 43.1443 36.0876 43.2589 36.057C43.3735 36.0264 43.511 36.0112 43.6714 36.0112C44.1526 36.0112 44.4887 36.0953 44.6796 36.2633C44.8782 36.4237 44.9775 36.6795 44.9775 37.0309L44.989 38.8757C44.989 38.9979 44.989 39.0896 44.989 39.1507C44.989 39.2041 44.9928 39.2728 45.0004 39.3568C45.0157 39.4408 45.031 39.5019 45.0463 39.5401C45.0692 39.5783 45.0959 39.6204 45.1265 39.6663C45.1647 39.7044 45.2105 39.7311 45.264 39.7464C45.3251 39.7616 45.3976 39.7694 45.4817 39.7694C45.7108 39.7694 45.8521 39.7083 45.9056 39.5861C45.9667 39.4562 45.9973 39.2232 45.9973 38.8871L46.0087 37.0309C46.0087 36.7941 46.0469 36.6032 46.1233 36.458C46.2073 36.3129 46.3448 36.2022 46.5358 36.1258C46.7267 36.0495 46.9864 36.0112 47.3149 36.0112C47.5135 36.0112 47.6815 36.0455 47.819 36.1143C47.9642 36.1754 48.0787 36.2595 48.1628 36.3665C48.2468 36.4658 48.3079 36.6184 48.3461 36.8247C48.3919 37.0233 48.4225 37.2257 48.4377 37.4319C48.453 37.6382 48.4607 37.9093 48.4607 38.2454Z" fill="#543DFC"/>
</g>
<defs>
<radialGradient id="paint0_radial_386_1963" cx="0" cy="0" r="1" gradientUnits="userSpaceOnUse" gradientTransform="translate(24.1551 16.6281) rotate(89.076) scale(5.92055 12.6729)">
<stop stop-color="white"/>
<stop offset="1" stop-color="#D0EDFD"/>
</radialGradient>
<radialGradient id="paint1_radial_386_1963" cx="0" cy="0" r="1" gradientUnits="userSpaceOnUse" gradientTransform="translate(25.2055 16.7246) rotate(90.8185) scale(3.34215 2.72146)">
<stop stop-color="#62CBF8"/>
<stop offset="0.564983" stop-color="#62CBF8"/>
<stop offset="1" stop-color="#543DFC"/>
</radialGradient>
<radialGradient id="paint2_radial_386_1963" cx="0" cy="0" r="1" gradientUnits="userSpaceOnUse" gradientTransform="translate(24.1558 16.6298) rotate(89.076) scale(5.92055 12.6729)">
<stop stop-color="white"/>
<stop offset="1" stop-color="#D0EDFD"/>
</radialGradient>
<radialGradient id="paint3_radial_386_1963" cx="0" cy="0" r="1" gradientUnits="userSpaceOnUse" gradientTransform="translate(37.8158 16.8027) rotate(90.8185) scale(3.34215 2.72146)">
<stop stop-color="#62CBF8"/>
<stop offset="0.564983" stop-color="#62CBF8"/>
<stop offset="1" stop-color="#543DFC"/>
</radialGradient>
<clipPath id="clip0_386_1963">
<rect width="64" height="52" fill="white"/>
</clipPath>
</defs>
</svg>
