<svg width="53" height="47" viewBox="0 0 53 47" fill="none" xmlns="http://www.w3.org/2000/svg">
<g clip-path="url(#clip0_386_1916)">
<path d="M25.8237 21.4919C35.826 31.778 41.3592 31.778 41.3592 31.778C41.3592 31.778 21.3281 40.4725 9.15261 45.2563C7.73384 45.8137 6.95789 45.5115 6.38652 44.9725C5.81295 44.4316 5.27152 43.6957 6.03104 42.0641C10.3572 32.7708 20.1486 9.57422 20.1486 9.57422C20.1486 9.57422 20.5033 16.1715 25.8237 21.4919Z" stroke="#00B2C7" stroke-width="2"/>
<path d="M35.3992 17.3075C31.0057 12.4899 21.9223 6.17033 20.4325 8.93698C18.9427 11.7036 23.4824 19.7906 27.881 23.7632C31.6153 27.1357 39.0889 32.3769 41.5717 31.7792C44.551 31.062 39.501 21.8052 35.3992 17.3075Z" stroke="#00B2C7" stroke-width="2"/>
<path d="M42.2674 21.5631C45.1956 20.8128 49.0073 21.2084 49.9997 21.2084C50.6314 21.2084 51.8492 21.6135 51.9997 21C52.1533 20.3742 51.4937 19.8565 50.8643 19.7187C48.595 19.2221 45.0268 19.1108 41.4287 20.1443C38.1646 21.082 34.5 23 33.7673 24.2588C33.4665 24.7756 33.5262 25.0097 33.7674 25.3708C34.1866 25.9984 35.5992 24.7553 35.5992 24.7553C35.5992 24.7553 39.4706 22.2797 42.2674 21.5631Z" fill="#FBB9BF"/>
<path d="M33.0057 8.68199C31.2663 11.1542 28.111 13.329 27.3564 13.9735C26.876 14.3838 25.687 14.8666 25.971 15.4309C26.2606 16.0064 27.0984 15.9718 27.6665 15.6677C29.7145 14.5716 32.5001 12.3389 34.5649 9.21612C36.4379 6.38325 37.9788 2.54479 37.7184 1.11179C37.6115 0.523394 37.4141 0.38415 36.9961 0.266234C36.2698 0.0613334 36.003 1.92391 36.003 1.92391C36.003 1.92391 34.667 6.32072 33.0057 8.68199Z" fill="#FBB9BF"/>
<path d="M33.5552 40.6451C33.3684 39.5183 34.2574 38.386 35.3996 38.3751C36.4771 38.3648 37.3345 39.284 37.3149 40.3614C37.2957 41.419 36.4573 42.2917 35.3996 42.2767C34.438 42.2631 33.7124 41.5938 33.5552 40.6451Z" fill="#7FC3F7"/>
<path d="M12.937 30.6412C12.7502 29.5143 13.6392 28.3821 14.7814 28.3712C15.8589 28.3609 16.7163 29.2801 16.6967 30.3575C16.6775 31.4151 15.8391 32.2878 14.7814 32.2728C13.8198 32.2592 13.0942 31.5899 12.937 30.6412Z" fill="#E5FF00"/>
<path d="M25.0249 44.2701C24.8381 43.1433 25.7271 42.011 26.8693 42.0001C27.9468 41.9898 28.8042 42.909 28.7846 43.9864C28.7654 45.044 27.927 45.9167 26.8693 45.9017C25.9077 45.8881 25.1821 45.2188 25.0249 44.2701Z" fill="#FA90B0"/>
<path d="M47.0249 39.2701C46.8381 38.1433 47.7271 37.011 48.8693 37.0001C49.9468 36.9898 50.8042 37.909 50.7846 38.9864C50.7654 40.044 49.927 40.9167 48.8693 40.9017C47.9077 40.8881 47.1821 40.2188 47.0249 39.2701Z" fill="#FA90B0"/>
<path d="M41.0288 16.5982C40.842 15.4714 41.731 14.3391 42.8732 14.3282C43.9507 14.3179 44.8081 15.2371 44.7885 16.3145C44.7693 17.3721 43.9309 18.2448 42.8732 18.2298C41.9116 18.2162 41.186 17.547 41.0288 16.5982Z" fill="#FBC900"/>
<path d="M0.0248813 34.2701C-0.161865 33.1433 0.727103 32.011 1.86928 32.0001C2.94681 31.9898 3.80421 32.909 3.78462 33.9864C3.76539 35.044 2.92699 35.9167 1.86928 35.9017C0.907715 35.8881 0.182106 35.2188 0.0248813 34.2701Z" fill="#E5FF00"/>
<path d="M45.4272 25.5357C45.2405 24.4089 46.1294 23.2766 47.2716 23.2657C48.3492 23.2554 49.2066 24.1746 49.187 25.252C49.1677 26.3096 48.3293 27.1823 47.2716 27.1673C46.3101 27.1537 45.5845 26.4845 45.4272 25.5357Z" fill="#7FC3F7"/>
<path d="M21.2649 2.24876C21.2463 1.10668 22.2924 0.117835 23.4238 0.275361C24.491 0.423971 25.2036 1.45949 25.0254 2.52224C24.8505 3.56549 23.8927 4.3051 22.8487 4.13437C21.8997 3.97916 21.2806 3.2103 21.2649 2.24876Z" fill="#7FC3F7"/>
<path d="M9.50018 7.00021C9.50004 7.50014 9.4999 8 8.50004 8C7.74367 8 7.87468 7.05893 7.87518 6.16682C7.87569 5.24529 8.07113 4.1461 8.44272 3.3294C9.22301 1.61446 10.256 1.2585 12.2024 1.34363C15.4345 1.48499 16.2094 5.70311 16.0331 8.93342C15.8201 12.835 15.1107 14.8212 14.2595 18.9357C14.1068 19.6737 13.3062 20.7206 12.5571 20.6383C11.8161 20.5568 12.2303 19.0903 12.415 18.3682C13.1952 15.3177 13.8318 12.6687 14.2595 8.93342C14.5438 6.45057 13.772 3 11.5001 3C9.50128 3 9.50043 6.07444 9.50018 6.99847V7.00021Z" fill="#FBB9BF"/>
<path d="M5.42709 23.6446C5.16808 22.0817 6.40102 20.5114 7.98514 20.4962C9.47959 20.4819 10.6687 21.7568 10.6416 23.251C10.6149 24.7179 9.4521 25.9283 7.98514 25.9075C6.65151 25.8886 5.64515 24.9604 5.42709 23.6446Z" fill="#00B2C7"/>
<path d="M38.6263 5.69927C38.3673 4.13639 39.6002 2.56607 41.1844 2.5509C42.6788 2.53659 43.868 3.81145 43.8408 5.30572C43.8141 6.77259 42.6513 7.98296 41.1844 7.96216C39.8507 7.94325 38.8444 7.01508 38.6263 5.69927Z" fill="#E5FF00"/>
</g>
<defs>
<clipPath id="clip0_386_1916">
<rect width="53" height="47" fill="white"/>
</clipPath>
</defs>
</svg>
