<svg width="22" height="32" viewBox="0 0 22 32" fill="none" xmlns="http://www.w3.org/2000/svg">
<path d="M22 5.35938V31.3594H0V5.625L18 0V5.35938H22ZM16 2.71875L7.54688 5.35938H16V2.71875ZM20 7.35938H2V29.3594H20V7.35938ZM11 13.4531C11.3854 13.099 11.8177 12.8281 12.2969 12.6406C12.776 12.4531 13.2865 12.3594 13.8281 12.3594C14.401 12.3594 14.9427 12.4688 15.4531 12.6875C15.9635 12.9062 16.4062 13.2031 16.7812 13.5781C17.1562 13.9531 17.4531 14.3958 17.6719 14.9062C17.8906 15.4167 18 15.9635 18 16.5469C18 17.099 17.8958 17.6302 17.6875 18.1406C17.4792 18.651 17.1771 19.1042 16.7812 19.5L11 25.2656L5.21875 19.5C4.82292 19.1042 4.52083 18.651 4.3125 18.1406C4.10417 17.6302 4 17.099 4 16.5469C4 15.9635 4.10938 15.4167 4.32812 14.9062C4.54688 14.3958 4.84375 13.9531 5.21875 13.5781C5.59375 13.2031 6.03125 12.9062 6.53125 12.6875C7.03125 12.4688 7.57812 12.3594 8.17188 12.3594C8.70312 12.3594 9.20833 12.4531 9.6875 12.6406C10.1667 12.8281 10.6042 13.099 11 13.4531ZM15.3594 18.0781C15.7865 17.651 16 17.1406 16 16.5469C16 16.2448 15.9427 15.9635 15.8281 15.7031C15.7135 15.4427 15.5573 15.2083 15.3594 15C15.1615 14.7917 14.9323 14.6354 14.6719 14.5312C14.4115 14.4271 14.125 14.3698 13.8125 14.3594C13.2188 14.3594 12.7083 14.5729 12.2812 15L11 16.2812L9.71875 15C9.29167 14.5729 8.78125 14.3594 8.1875 14.3594C7.88542 14.3594 7.60417 14.4167 7.34375 14.5312C7.08333 14.6458 6.84896 14.8021 6.64062 15C6.43229 15.1979 6.27604 15.4271 6.17188 15.6875C6.06771 15.9479 6.01042 16.2344 6 16.5469C6 17.1406 6.21354 17.651 6.64062 18.0781L11 22.4375L15.3594 18.0781Z" fill="white"/>
</svg>
