<svg width="67" height="55" viewBox="0 0 67 55" fill="none" xmlns="http://www.w3.org/2000/svg">
<path d="M5.0666 27.7578L3.89345 28.5958C3.66186 28.7612 3.52441 29.0283 3.52441 29.3129V37.7517C3.52441 38.1042 3.7345 38.4228 4.05852 38.5617L5.0666 38.9937M5.0666 27.7578L6.23975 28.5958C6.47134 28.7612 6.60879 29.0283 6.60879 29.3129V37.4387C6.60879 37.7233 6.47134 37.9904 6.23975 38.1558L5.0666 38.9937M5.0666 27.7578V25.5547M5.0666 38.9937V40.9766" stroke="#00AD20"/>
<path d="M12.1164 21.9667L11.0302 22.5653C10.7489 22.7203 10.5742 23.016 10.5742 23.3371V29.4878C10.5742 29.8679 10.8179 30.2052 11.1788 30.3245L12.1164 30.6345M12.1164 21.9667L13.2026 22.5653C13.4839 22.7203 13.6586 23.016 13.6586 23.3371V29.2641C13.6586 29.5852 13.4839 29.8809 13.2026 30.0359L12.1164 30.6345M12.1164 21.9667V20.0469M12.1164 30.6345V32.1641" stroke="#00AD20"/>
<path d="M18.7258 8.74877L17.6395 9.34731C17.3583 9.50229 17.1836 9.798 17.1836 10.1191V16.2698C17.1836 16.6499 17.4273 16.9872 17.7882 17.1065L18.7258 17.4165M18.7258 8.74877L19.812 9.34731C20.0933 9.50229 20.268 9.798 20.268 10.1191V16.0461C20.268 16.3673 20.0933 16.663 19.812 16.818L18.7258 17.4165M18.7258 8.74877V3.96484M18.7258 17.4165V21.8102" stroke="#00AD20"/>
<path d="M25.3352 17.1191L24.2489 17.7176C23.9677 17.8726 23.793 18.1683 23.793 18.4895V24.6401C23.793 25.0202 24.0367 25.3575 24.3976 25.4768L25.3352 25.7868M25.3352 17.1191L26.4214 17.7176C26.7027 17.8726 26.8773 18.1683 26.8773 18.4895V24.4164C26.8773 24.7376 26.7027 25.0333 26.4214 25.1883L25.3352 25.7868M25.3352 17.1191V15.1992M25.3352 25.7868V28.1977" stroke="#00AD20"/>
<path d="M31.9445 25.491L30.8583 26.0895C30.577 26.2445 30.4023 26.5402 30.4023 26.8613V33.012C30.4023 33.3921 30.6461 33.7294 31.007 33.8487L31.9445 34.1587M31.9445 25.491L33.0308 26.0895C33.312 26.2445 33.4867 26.5402 33.4867 26.8613V32.7883C33.4867 33.1094 33.312 33.4052 33.0308 33.5601L31.9445 34.1587M31.9445 25.491V20.707M31.9445 34.1587V37.8914" stroke="#00AD20"/>
<path d="M38.5539 33.8621L37.4677 34.4606C37.1864 34.6156 37.0117 34.9113 37.0117 35.2324V41.3831C37.0117 41.7632 37.2554 42.1005 37.6163 42.2198L38.5539 42.5298M38.5539 33.8621L39.6401 34.4606C39.9214 34.6156 40.0961 34.9113 40.0961 35.2324V41.1594C40.0961 41.4805 39.9214 41.7763 39.6401 41.9312L38.5539 42.5298M38.5539 33.8621V29.0781M38.5539 42.5298V45.8219" stroke="#00AD20"/>
<path d="M45.1633 19.1305L43.8417 20.6276C43.6995 20.7886 43.6211 20.996 43.6211 21.2108V35.4345C43.6211 35.7264 43.7656 35.9993 44.007 36.1634L45.1633 36.9493M45.1633 19.1305L46.4849 20.6276C46.627 20.7886 46.7055 20.996 46.7055 21.2108V34.869C46.7055 35.0838 46.627 35.2912 46.4849 35.4522L45.1633 36.9493M45.1633 19.1305V15.8594M45.1633 36.9493V40.3141" stroke="#00AD20"/>
<path d="M51.7727 13.1431L50.5759 14.0596C50.3582 14.2263 50.2305 14.485 50.2305 14.7592V23.9162C50.2305 24.2605 50.4309 24.5732 50.7438 24.717L51.7727 25.1897M51.7727 13.1431L52.9694 14.0596C53.1871 14.2263 53.3148 14.485 53.3148 14.7592V23.5736C53.3148 23.8479 53.1871 24.1065 52.9694 24.2732L51.7727 25.1897M51.7727 13.1431V9.25M51.7727 25.1897V28.6375" stroke="#00AD20"/>
<path d="M58.382 7.52813L57.1484 8.58293C56.9526 8.75035 56.8398 8.99509 56.8398 9.25272V19.6485C56.8398 19.979 57.0248 20.2818 57.3188 20.4326L58.382 20.978M58.382 7.52813L59.6157 8.58293C59.8115 8.75035 59.9242 8.99509 59.9242 9.25272V19.2535C59.9242 19.5111 59.8115 19.7558 59.6157 19.9233L58.382 20.978M58.382 7.52813V3.52344M58.382 20.978V24.6734" stroke="#00AD20"/>
<path d="M18.9468 29.9789L19.3279 29.6553L18.9437 29.2028L18.5631 29.6583L18.9468 29.9789ZM38.7749 53.332L38.3937 53.6556L38.7544 54.0804L39.1378 53.676L38.7749 53.332ZM62.789 27.9961L57.2542 29.6392L61.4445 33.6109L62.789 27.9961ZM5.5077 46.0617L5.89138 46.3823L19.3305 30.2995L18.9468 29.9789L18.5631 29.6583L5.12402 45.7411L5.5077 46.0617ZM18.9468 29.9789L18.5656 30.3025L38.3937 53.6556L38.7749 53.332L39.156 53.0084L19.3279 29.6553L18.9468 29.9789ZM38.7749 53.332L39.1378 53.676L60.0562 31.6061L59.6933 31.2621L59.3304 30.9182L38.412 52.9881L38.7749 53.332Z" fill="#00AD20"/>
</svg>
