<svg width="21" height="21" viewBox="0 0 21 21" fill="none" xmlns="http://www.w3.org/2000/svg">
<path d="M17.5 9.625C17.2679 9.625 17.0454 9.71719 16.8813 9.88128C16.7172 10.0454 16.625 10.2679 16.625 10.5V15.75C16.625 15.9821 16.5328 16.2046 16.3687 16.3687C16.2046 16.5328 15.9821 16.625 15.75 16.625H5.25C5.01794 16.625 4.79538 16.5328 4.63128 16.3687C4.46719 16.2046 4.375 15.9821 4.375 15.75V5.25C4.375 5.01794 4.46719 4.79538 4.63128 4.63128C4.79538 4.46719 5.01794 4.375 5.25 4.375H10.5C10.7321 4.375 10.9546 4.28281 11.1187 4.11872C11.2828 3.95462 11.375 3.73206 11.375 3.5C11.375 3.26794 11.2828 3.04538 11.1187 2.88128C10.9546 2.71719 10.7321 2.625 10.5 2.625H5.25C4.55381 2.625 3.88613 2.90156 3.39384 3.39384C2.90156 3.88613 2.625 4.55381 2.625 5.25V15.75C2.625 16.4462 2.90156 17.1139 3.39384 17.6062C3.88613 18.0984 4.55381 18.375 5.25 18.375H15.75C16.4462 18.375 17.1139 18.0984 17.6062 17.6062C18.0984 17.1139 18.375 16.4462 18.375 15.75V10.5C18.375 10.2679 18.2828 10.0454 18.1187 9.88128C17.9546 9.71719 17.7321 9.625 17.5 9.625Z" fill="#313DEB"/>
<path d="M14.0002 4.375H15.3827L9.87894 9.87C9.79693 9.95134 9.73183 10.0481 9.68741 10.1547C9.64299 10.2614 9.62012 10.3757 9.62012 10.4913C9.62012 10.6068 9.64299 10.7211 9.68741 10.8278C9.73183 10.9344 9.79693 11.0312 9.87894 11.1125C9.96028 11.1945 10.0571 11.2596 10.1637 11.304C10.2703 11.3485 10.3847 11.3713 10.5002 11.3713C10.6157 11.3713 10.7301 11.3485 10.8367 11.304C10.9433 11.2596 11.0401 11.1945 11.1214 11.1125L16.6252 5.6175V7C16.6252 7.23206 16.7174 7.45462 16.8815 7.61872C17.0456 7.78281 17.2681 7.875 17.5002 7.875C17.7323 7.875 17.9548 7.78281 18.1189 7.61872C18.283 7.45462 18.3752 7.23206 18.3752 7V3.5C18.3752 3.26794 18.283 3.04538 18.1189 2.88128C17.9548 2.71719 17.7323 2.625 17.5002 2.625H14.0002C13.7681 2.625 13.5456 2.71719 13.3815 2.88128C13.2174 3.04538 13.1252 3.26794 13.1252 3.5C13.1252 3.73206 13.2174 3.95462 13.3815 4.11872C13.5456 4.28281 13.7681 4.375 14.0002 4.375Z" fill="#313DEB"/>
</svg>
