<svg width="32" height="32" viewBox="0 0 32 32" fill="none" xmlns="http://www.w3.org/2000/svg">
<circle cx="16" cy="16" r="16" fill="white"/>
<path d="M22.7775 22.5398L17.8869 14.8539L22.7127 9.54531C22.8218 9.42228 22.8781 9.2612 22.8692 9.09697C22.8604 8.93275 22.7872 8.77862 22.6655 8.66801C22.5437 8.5574 22.3833 8.49923 22.219 8.50609C22.0547 8.51296 21.8997 8.58431 21.7877 8.70469L17.1908 13.7609L14.0275 8.78984C13.9711 8.70106 13.8932 8.62795 13.801 8.57728C13.7088 8.52661 13.6053 8.50003 13.5002 8.5H9.75016C9.6381 8.49995 9.52808 8.53002 9.43163 8.58708C9.33518 8.64413 9.25585 8.72607 9.20194 8.82431C9.14802 8.92255 9.12152 9.03348 9.12519 9.14548C9.12886 9.25749 9.16258 9.36644 9.22281 9.46094L14.1134 17.1461L9.28766 22.4586C9.2313 22.5191 9.18752 22.5902 9.15886 22.6678C9.13019 22.7454 9.11721 22.8279 9.12066 22.9105C9.12411 22.9932 9.14393 23.0743 9.17897 23.1492C9.21401 23.2241 9.26357 23.2914 9.32477 23.347C9.38598 23.4026 9.45762 23.4455 9.53554 23.4733C9.61346 23.501 9.69611 23.513 9.77869 23.5085C9.86128 23.5041 9.94216 23.4833 10.0167 23.4474C10.0912 23.4114 10.1578 23.3611 10.2127 23.2992L14.8095 18.243L17.9728 23.2141C18.0297 23.3021 18.1078 23.3745 18.1999 23.4244C18.2921 23.4744 18.3953 23.5004 18.5002 23.5H22.2502C22.3621 23.5 22.472 23.4699 22.5683 23.4128C22.6646 23.3558 22.7439 23.274 22.7978 23.1759C22.8517 23.0778 22.8782 22.967 22.8746 22.8551C22.8711 22.7432 22.8375 22.6343 22.7775 22.5398ZM18.8431 22.25L10.8884 9.75H13.1541L21.1119 22.25H18.8431Z" fill="#111827"/>
</svg>
