<svg width="24" height="24" viewBox="0 0 24 24" fill="none" xmlns="http://www.w3.org/2000/svg">
<path d="M18.6663 6.66683H2.66634M18.6663 6.66683C19.02 6.66683 19.3591 6.80731 19.6092 7.05735C19.8592 7.3074 19.9997 7.64654 19.9997 8.00016V11.4668M18.6663 6.66683L13.333 1.3335M2.66634 6.66683C2.31272 6.66683 1.97358 6.80731 1.72353 7.05735C1.47348 7.3074 1.33301 7.64654 1.33301 8.00016V21.3335C1.33301 21.6871 1.47348 22.0263 1.72353 22.2763C1.97358 22.5264 2.31272 22.6668 2.66634 22.6668H18.6663C19.02 22.6668 19.3591 22.5264 19.6092 22.2763C19.8592 22.0263 19.9997 21.6871 19.9997 21.3335V17.8668M2.66634 6.66683L7.99967 1.3335L13.333 6.66683M21.333 12.0002H15.9997C15.2924 12.0002 14.6142 12.2811 14.1141 12.7812C13.614 13.2813 13.333 13.9596 13.333 14.6668C13.333 15.3741 13.614 16.0524 14.1141 16.5524C14.6142 17.0525 15.2924 17.3335 15.9997 17.3335H21.333C21.6866 17.3335 22.0258 17.193 22.2758 16.943C22.5259 16.6929 22.6663 16.3538 22.6663 16.0002V13.3335C22.6663 12.9799 22.5259 12.6407 22.2758 12.3907C22.0258 12.1406 21.6866 12.0002 21.333 12.0002Z" stroke="white" stroke-width="2.66667" stroke-linecap="round" stroke-linejoin="round"/>
</svg>
