<svg width="59" height="42" viewBox="0 0 59 42" fill="none" xmlns="http://www.w3.org/2000/svg">
<g clip-path="url(#clip0_386_2060)">
<path d="M46.096 25.1869C46.096 25.1869 49.0496 31.509 49.2569 33.0115C49.4642 34.5139 48.2724 35.2396 47.0287 35.3951C46.2761 35.4892 44.127 36.6909 44.127 36.6909M46.096 25.1869C46.096 25.1869 45.6429 23.0685 44.8524 21.6116C42.2097 16.7409 39.9816 12.3359 37.6498 5.91061C37.4142 5.26134 37.2374 4.58446 37.4943 4.14878C37.7254 3.75704 38.3234 3.42308 38.3234 3.42308M46.096 25.1869C46.096 25.1869 49.6777 25.8859 52.0032 25.9644C54.293 26.0416 57.4959 26.2753 57.8586 25.1869C58.1144 24.4191 57.9221 23.6244 57.4959 22.7516C55.3195 18.2955 53.715 16.1476 50.7078 12.3359C47.2245 7.92057 42.9765 3.27896 40.6552 2.02419C38.738 0.987851 35.8301 0.47769 33.8671 1.76489C30.7063 3.83756 26.7163 9.48584 26.7163 9.48584M44.127 36.6909C44.127 36.6909 42.417 39.23 39.6189 39.4891C36.8207 39.7482 34.2298 39.0352 34.2298 39.0352L26.6645 35.6027C23.8342 34.3254 22.8699 33.1769 20.3946 31.302C18.6846 30.0068 17.0265 26.9491 17.0265 26.9491M44.127 36.6909V36.3807M26.7163 9.48584C26.7163 9.48584 23.4952 11.1623 21.8455 12.7504C20.4313 14.1118 18.7883 16.7404 18.7883 16.7404M26.7163 9.48584C26.7163 9.48584 25.9912 11.0633 25.2136 11.8177C24.4638 12.5451 22.9337 13.2168 22.9337 13.2168M18.7883 16.7404C18.7883 16.7404 18.3737 20.9377 18.8401 23.2178C19.4308 26.1058 21.7247 27.5513 24.0736 29.3323C26.4621 31.1434 28.5299 32.1305 30.8099 33.0115L38.8416 35.4469L44.127 36.3807M18.7883 16.7404C18.7883 16.7404 16.5236 19.3832 16.7674 22.2332C16.8907 23.6751 17.0265 26.9491 17.0265 26.9491M44.127 36.3807C44.127 36.3807 42.2615 37.6367 40.6552 37.7922C39.0489 37.9476 37.3907 37.4813 37.3907 37.4813L28.9445 34.7743C28.9445 34.7743 24.5918 32.1834 22.1046 30.007C20.5386 28.6368 17.0265 26.9491 17.0265 26.9491" stroke="#FFD700"/>
<path d="M38.7903 35.3966L30.8105 33.0129C30.1022 33.3367 28.945 33.9457 28.945 33.9457L27.7014 34.3602C26.0951 34.8957 23.4006 35.1375 23.4006 35.1375C23.4006 35.1375 22.9055 35.8959 22.4161 35.9148C21.9721 35.9319 21.4315 35.3448 21.4315 35.3448C21.4315 35.3448 17.2343 35.3448 13.7107 34.2566C11.1303 33.4596 7.18174 31.9766 7.18174 31.9766C7.18174 31.9766 6.07919 32.9729 5.36813 33.4793C4.15275 34.3449 2 34.8784 2 34.8784C2 34.8784 5.58808 36.8186 8.01082 37.7802C13.4783 39.9503 16.8458 41.1119 22.727 40.993C26.5254 40.9162 29.3942 40.5907 32.8313 38.9721C34.2026 38.3263 35.8368 37.5211 35.8368 37.5211L37.184 36.7957L38.7903 35.3966Z" fill="#FFF3B0" stroke="#FFD700"/>
</g>
<defs>
<clipPath id="clip0_386_2060">
<rect width="59" height="42" fill="white"/>
</clipPath>
</defs>
</svg>
