<svg width="61" height="42" viewBox="0 0 61 42" fill="none" xmlns="http://www.w3.org/2000/svg">
<g clip-path="url(#clip0_386_1946)">
<path d="M20.2391 8.74194V4C20.2391 2.34315 21.5823 1 23.2391 1H37.7609C39.4177 1 40.7609 2.34315 40.7609 4V8.74194M20.2391 8.74194H40.7609M20.2391 8.74194H12.5435M40.7609 8.74194H48.4565M12.5435 8.74194H4C2.34315 8.74194 1 10.0851 1 11.7419V38C1 39.6569 2.34314 41 4 41H12.5435M12.5435 8.74194V41M48.4565 8.74194H57C58.6569 8.74194 60 10.0851 60 11.7419V38C60 39.6569 58.6569 41 57 41H48.4565M48.4565 8.74194V41M12.5435 41H48.4565" stroke="#9AC900" stroke-width="2"/>
</g>
<defs>
<clipPath id="clip0_386_1946">
<rect width="61" height="42" fill="white"/>
</clipPath>
</defs>
</svg>
