<svg width="16" height="13" viewBox="0 0 16 13" fill="none" xmlns="http://www.w3.org/2000/svg">
<g opacity="0.46">
<path d="M6.4893 1.3462C8.46528 0.63657 9.83329 0.12761 11.3308 0.890806L11.6324 1.06058C12.8148 1.79105 13.4097 3.0504 13.4669 4.45303C13.5208 5.77359 13.0924 7.18162 12.2656 8.28789L12.0948 8.5056C10.6673 10.2327 7.96642 11.3136 5.48465 11.3678C3.06254 11.4205 1.13327 10.5153 0.650128 8.61944L0.608185 8.43269C0.270452 6.72944 0.842488 5.29756 1.94939 4.11149C2.92965 3.06118 4.32237 2.21618 5.83418 1.59786L6.4893 1.3462Z" stroke="#046ECA"/>
<g filter="url(#filter0_d_386_1758)">
<path d="M8.33347 1.53748C10.3901 0.79888 12.0561 0.147553 13.9184 1.29776C16.633 2.97467 16.5455 7.03624 14.5065 9.50321C11.4166 13.2423 3.07362 13.9928 2.1238 9.20441C1.3718 5.41193 4.72409 2.83366 8.33347 1.53748Z" fill="#046ECB"/>
</g>
</g>
<defs>
<filter id="filter0_d_386_1758" x="1.19919" y="-0.145755" width="15.6185" height="13.5178" filterUnits="userSpaceOnUse" color-interpolation-filters="sRGB">
<feFlood flood-opacity="0" result="BackgroundImageFix"/>
<feColorMatrix in="SourceAlpha" type="matrix" values="0 0 0 0 0 0 0 0 0 0 0 0 0 0 0 0 0 0 127 0" result="hardAlpha"/>
<feOffset/>
<feGaussianBlur stdDeviation="0.4"/>
<feComposite in2="hardAlpha" operator="out"/>
<feColorMatrix type="matrix" values="0 0 0 0 0.464423 0 0 0 0 0 0 0 0 0 0.252187 0 0 0 0.46 0"/>
<feBlend mode="normal" in2="BackgroundImageFix" result="effect1_dropShadow_386_1758"/>
<feBlend mode="normal" in="SourceGraphic" in2="effect1_dropShadow_386_1758" result="shape"/>
</filter>
</defs>
</svg>
