<svg width="97" height="55" viewBox="0 0 97 55" fill="none" xmlns="http://www.w3.org/2000/svg">
<path d="M37.2334 35.5566C37.3781 33.0756 40.1951 31.233 42.6917 31.9944C44.5378 32.558 45.9216 34.4352 45.5062 36.5099C45.123 38.4302 43.1543 39.8203 41.0621 39.669C38.872 39.5113 37.0882 37.8872 37.2334 35.5566Z" fill="#4CABA2"/>
<path d="M62.3537 23.3525C62.4342 21.7034 63.7246 20.2727 65.4268 19.8689C67.1885 19.4506 68.8788 20.0718 69.8798 21.5032C71.1606 23.3349 70.782 25.4851 68.9535 26.6782C67.6502 27.5283 66.2333 27.7095 64.774 27.0753C63.2817 26.4268 62.5036 25.3116 62.3581 23.8497C62.3394 23.6595 62.3546 23.4667 62.3537 23.3525Z" fill="#E7B653"/>
<path d="M81.1949 40.5276C81.2428 39.5678 81.9964 38.7352 82.9924 38.5001C84.0226 38.2571 85.0116 38.6187 85.5972 39.4526C86.3472 40.5187 86.1261 41.7704 85.056 42.4647C84.2933 42.9594 83.4645 43.0648 82.6109 42.6955C81.7372 42.3177 81.2822 41.6679 81.1963 40.8171C81.1849 40.7063 81.1941 40.5938 81.1934 40.5276L81.1949 40.5276Z" fill="#4CABA2"/>
<path d="M81.7855 32.9619C81.8288 32.0849 82.5328 31.3257 83.4646 31.1114C84.429 30.8906 85.3537 31.2211 85.9037 31.9836C86.606 32.9583 86.4012 34.1015 85.4005 34.735C84.6873 35.1862 83.9118 35.282 83.1137 34.9434C82.2969 34.5976 81.8695 34.0047 81.7883 33.2268C81.7779 33.1251 81.7865 33.0229 81.7855 32.9619Z" fill="#4CABA2"/>
<path d="M88.8117 33.2345C88.8549 32.3575 89.559 31.5983 90.4907 31.384C91.4551 31.1632 92.3799 31.4937 92.9298 32.2561C93.6322 33.2308 93.4273 34.3741 92.4267 35.0075C91.7134 35.4587 90.9379 35.5545 90.1398 35.2159C89.323 34.8701 88.8956 34.2773 88.8144 33.4993C88.804 33.3977 88.8127 33.2955 88.8117 33.2345Z" fill="#E7B653"/>
<path d="M91.1514 41.192C91.2046 40.1103 92.1108 39.1747 93.3121 38.9138C94.5551 38.6428 95.7496 39.0538 96.4613 39.9939C97.3709 41.1973 97.1101 42.607 95.821 43.3863C94.9025 43.9411 93.9029 44.0568 92.8701 43.639C91.8144 43.2112 91.2628 42.4773 91.1551 41.5192C91.1416 41.3941 91.1515 41.2685 91.1514 41.1933L91.1514 41.192Z" fill="#E56D60"/>
<path d="M92.4379 47.0486C92.4598 46.6056 92.8319 46.2216 93.3235 46.1135C93.8329 46.0021 94.3237 46.1705 94.616 46.5569C94.9888 47.0503 94.8816 47.6289 94.3532 47.9484C93.9767 48.1765 93.5662 48.2241 93.1431 48.0519C92.7099 47.8768 92.4832 47.576 92.4393 47.1823C92.4333 47.1315 92.4377 47.0797 92.4379 47.0486Z" fill="#E56D60"/>
<path d="M87.642 9.1971C87.6996 8.03646 88.6068 7.0295 89.805 6.74637C91.0449 6.45188 92.2336 6.88869 92.9385 7.89724C93.8389 9.18594 93.5737 10.6993 92.2857 11.5384C91.3677 12.1374 90.3719 12.2635 89.3451 11.8174C88.2954 11.3614 87.7482 10.5757 87.6444 9.54762C87.6313 9.41343 87.6419 9.27757 87.642 9.1971Z" fill="#4CABA2"/>
<path d="M88.8985 10.6772C88.8444 10.6751 88.7912 10.6549 88.7523 10.6158C88.4245 10.2877 88.2306 9.8726 88.1759 9.38248C88.1672 9.30297 88.1701 9.22391 88.1704 9.16682C88.1715 9.14739 88.1724 9.13055 88.1718 9.11625C88.2156 8.20296 88.9507 7.41385 89.9592 7.19084C90.5087 7.06942 91.0551 7.1101 91.5428 7.30814C91.646 7.35108 91.6913 7.45927 91.6435 7.55216C91.5944 7.64369 91.4718 7.68436 91.3671 7.64265C90.967 7.47916 90.5155 7.44606 90.0595 7.54776C89.2291 7.73226 88.6253 8.37851 88.588 9.12203C88.5875 9.1311 88.5864 9.15182 88.5865 9.17519C88.5837 9.22569 88.5832 9.28797 88.5902 9.34664C88.6346 9.75849 88.7942 10.1034 89.0637 10.3735C89.1401 10.4491 89.1307 10.5656 89.0448 10.6323C89.0019 10.6657 88.9497 10.6805 88.897 10.6785L88.8985 10.6772Z" fill="#EFE3C2"/>
<path d="M21.001 47.4987C20.9469 47.4966 20.8937 47.4764 20.8549 47.4372C20.4645 47.047 20.2339 46.5539 20.1699 45.9687C20.159 45.8748 20.1627 45.7815 20.1637 45.7128C20.165 45.6895 20.1662 45.6674 20.1642 45.6505C20.2176 44.5663 21.0916 43.6281 22.2902 43.3631C22.9437 43.2185 23.5953 43.2672 24.1733 43.5025C24.2779 43.5455 24.3218 43.6536 24.274 43.7465C24.2263 43.8394 24.1023 43.8787 23.9976 43.837C23.5057 43.6362 22.9491 43.5951 22.389 43.72C21.3686 43.9464 20.6243 44.743 20.5805 45.6563C20.5798 45.6679 20.5799 45.6939 20.5798 45.7211C20.5778 45.7834 20.5764 45.8599 20.5842 45.9316C20.6395 46.4373 20.8357 46.8615 21.1678 47.1924C21.2443 47.268 21.2348 47.3845 21.1489 47.4512C21.106 47.4846 21.0538 47.4994 21.0011 47.4974L21.001 47.4987Z" fill="#EFE3C2"/>
<path d="M67.6748 14.7521C67.6981 14.2845 68.083 13.8802 68.594 13.7664C69.1228 13.6494 69.6307 13.8261 69.9322 14.2324C70.3182 14.7522 70.2063 15.3618 69.6594 15.6987C69.2689 15.9393 68.8437 15.9889 68.4049 15.8084C67.9561 15.6235 67.7215 15.3068 67.6772 14.8924C67.6714 14.8389 67.676 14.7833 67.6764 14.7509L67.6748 14.7521Z" fill="#E7B653"/>
<path d="M83.2074 20.6227C83.2213 20.3494 83.4472 20.1128 83.7472 20.0466C84.0576 19.9782 84.357 20.082 84.5343 20.3199C84.7608 20.6246 84.6969 20.9803 84.3733 21.178C84.144 21.3184 83.893 21.3475 83.6362 21.2428C83.3724 21.1352 83.2346 20.9495 83.2071 20.707C83.203 20.6757 83.2063 20.6434 83.2059 20.6239L83.2074 20.6227Z" fill="#EFE3C2"/>
<path d="M86.2244 21.7777C86.2382 21.5044 86.4641 21.2679 86.7642 21.2016C87.0746 21.1332 87.3739 21.237 87.5513 21.4749C87.7777 21.7796 87.7138 22.1353 87.3903 22.333C87.1609 22.4734 86.9099 22.5026 86.6532 22.3978C86.3893 22.2903 86.2515 22.1045 86.224 21.862C86.2199 21.8307 86.2232 21.7984 86.2228 21.7789L86.2244 21.7777Z" fill="#EFE3C2"/>
<path d="M89.5615 22.0947C89.5741 21.8447 89.7812 21.6295 90.0545 21.5688C90.3382 21.5058 90.6102 21.6007 90.7726 21.8173C90.98 22.0953 90.9207 22.4201 90.6261 22.6007C90.4164 22.7288 90.189 22.7563 89.9524 22.6589C89.7115 22.56 89.586 22.3916 89.5617 22.17C89.5589 22.1413 89.5606 22.1116 89.5615 22.0947Z" fill="#EFE3C2"/>
<path d="M85.9184 19.3618C85.9338 19.0613 86.183 18.801 86.5128 18.7281C86.8544 18.6531 87.1839 18.7672 87.3791 19.0278C87.6288 19.362 87.5569 19.7551 87.2031 19.971C86.9509 20.1261 86.6748 20.1582 86.3923 20.0421C86.1026 19.9231 85.9498 19.7186 85.9207 19.4527C85.9168 19.4175 85.9202 19.3826 85.9199 19.3618L85.9184 19.3618Z" fill="#EFE3C2"/>
<path d="M83.4049 17.121C83.4203 16.7932 83.6929 16.5092 84.0538 16.4297C84.4266 16.3469 84.7849 16.4724 84.9978 16.7571C85.2707 17.122 85.1925 17.5499 84.8052 17.7866C84.5303 17.9551 84.229 17.9901 83.9207 17.8639C83.6038 17.7335 83.4387 17.5116 83.4066 17.221C83.4029 17.1832 83.405 17.1443 83.4048 17.1223L83.4049 17.121Z" fill="#EFE3C2"/>
<path d="M82.3081 21.717C82.6374 21.5741 83.037 21.6415 83.2751 21.8688C83.5216 22.1042 83.5593 22.4262 83.3743 22.7175C83.1378 23.0899 82.6838 23.2332 82.2784 23.0591C81.9905 22.9363 81.8215 22.7312 81.8083 22.4439C81.7939 22.15 81.9386 21.9233 82.2101 21.7638C82.245 21.7431 82.284 21.7278 82.3066 21.717L82.3081 21.717Z" fill="#EFE3C2"/>
<path d="M42.709 17.8774C42.7901 16.2452 44.0649 14.8294 45.7492 14.4302C47.4931 14.0164 49.1648 14.6303 50.1563 16.0471C51.4235 17.8588 51.0491 19.9871 49.2388 21.1679C47.9493 22.0095 46.5471 22.1886 45.1036 21.5615C43.6271 20.9201 42.8572 19.8156 42.7122 18.3694C42.6934 18.1817 42.7085 17.9903 42.709 17.8774Z" fill="#E56D60"/>
<path d="M25.6978 5.03622C25.754 3.90148 26.6834 2.91745 27.9149 2.6421C29.1895 2.35674 30.4138 2.78585 31.1419 3.77324C32.0731 5.03588 31.804 6.51537 30.4819 7.3349C29.5397 7.9187 28.5148 8.04113 27.4567 7.6029C26.3758 7.1547 25.8101 6.38517 25.7006 5.37897C25.6859 5.24861 25.6978 5.11539 25.6964 5.03617L25.6978 5.03622Z" fill="#4C4039"/>
<path d="M31.429 40.1315C32.6556 40.1792 33.5953 41.1592 33.5204 42.3153C33.449 43.4326 32.4086 44.3292 31.2453 44.2776C30.0074 44.2217 29.0311 43.2143 29.0958 42.0591C29.1605 40.9039 30.1555 40.0834 31.4276 40.1315L31.429 40.1315Z" fill="#4CABA2"/>
<path d="M25.2438 34.9591C25.8922 34.9842 26.3913 35.476 26.3531 36.0534C26.3175 36.6114 25.7687 37.0599 25.1541 37.0321C24.4986 37.0028 23.9812 36.4973 24.0135 35.9197C24.0458 35.3421 24.5704 34.9329 25.2438 34.9591Z" fill="#E56D60"/>
<path d="M5.84066 36.9307C6.53008 36.9575 7.05811 37.5088 7.01586 38.1587C6.97631 38.7866 6.39058 39.2921 5.73797 39.2629C5.04145 39.2319 4.4938 38.6643 4.53019 38.0142C4.56658 37.364 5.12489 36.9029 5.84066 36.9307Z" fill="#4CABA2"/>
<path d="M10.2904 19.0635C10.9389 19.0887 11.4396 19.5507 11.4034 20.0931C11.3697 20.6161 10.8226 21.0348 10.208 21.0071C9.55249 20.9777 9.03336 20.5033 9.06366 19.962C9.09397 19.4207 9.61711 19.0373 10.2904 19.0635Z" fill="#E56D60"/>
<path d="M34.7029 34.4477C36.0404 34.5061 37.06 35.5528 36.9737 36.7786C36.8898 37.9628 35.5356 38.885 34.4832 38.8441C33.133 38.7761 32.0724 37.7018 32.1498 36.477C32.2271 35.2523 33.3156 34.3873 34.7029 34.4477Z" fill="#4CABA2"/>
<path d="M38.242 40.5458C38.8946 40.5738 39.3912 41.0849 39.349 41.6816C39.3079 42.2589 38.8283 42.7282 38.1352 42.6883C37.477 42.655 36.9606 42.1314 36.9984 41.5345C37.0362 40.9377 37.5659 40.5157 38.2434 40.5459L38.242 40.5458Z" fill="#4CABA2"/>
<path d="M36.7129 29.3032C37.3656 29.3311 37.8639 29.8099 37.8237 30.3703C37.7847 30.9113 37.3084 31.3484 36.6138 31.3097C35.9554 31.2777 35.4373 30.7851 35.4716 30.2258C35.5073 29.6665 36.0353 29.2743 36.7114 29.3031L36.7129 29.3032Z" fill="#E56D60"/>
<path d="M56.8451 41.017C57.4978 41.0449 57.9961 41.5237 57.956 42.0841C57.9169 42.6251 57.4406 43.0622 56.746 43.0235C56.0877 42.9915 55.5695 42.4989 55.6038 41.9396C55.6395 41.3803 56.1675 40.9881 56.8436 41.0169L56.8451 41.017Z" fill="#E56D60"/>
<path d="M61.8671 48.2206C62.5198 48.2485 63.0182 48.7273 62.978 49.2877C62.9389 49.8287 62.4626 50.2658 61.768 50.2271C61.1097 50.1951 60.5916 49.7025 60.6258 49.1432C60.6615 48.5839 61.1896 48.1917 61.8657 48.2205L61.8671 48.2206Z" fill="#4CABA2"/>
<path d="M71.8082 48.8662C72.4609 48.8942 72.9593 49.373 72.9191 49.9334C72.88 50.4744 72.4037 50.9114 71.7091 50.8728C71.0508 50.8407 70.5327 50.3482 70.5669 49.7888C70.6026 49.2295 71.1307 48.8373 71.8068 48.8662L71.8082 48.8662Z" fill="#E56D60"/>
<path d="M25.0404 29.3917C25.6711 29.4188 26.1525 29.9125 26.1113 30.4911C26.0712 31.0502 25.6072 31.5033 24.936 31.4656C24.2982 31.4343 23.7985 30.9269 23.8353 30.3482C23.872 29.7708 24.3848 29.3624 25.0405 29.3904L25.0404 29.3917Z" fill="#E7B653"/>
<path d="M15.7029 16.0513C16.436 16.0837 16.9966 16.6571 16.9486 17.3301C16.9035 17.9799 16.3634 18.5079 15.5826 18.4633C14.8424 18.4268 14.2608 17.8357 14.3027 17.165C14.3448 16.4931 14.9419 16.0192 15.7029 16.0513Z" fill="#E7B653"/>
<path d="M34.6608 29.2481C35.2476 29.2735 35.6957 29.7334 35.6582 30.2719C35.6218 30.7922 35.1903 31.2141 34.5644 31.1794C33.972 31.1499 33.5055 30.6776 33.54 30.1403C33.5745 29.603 34.052 29.2231 34.6608 29.2494L34.6608 29.2481Z" fill="#E7B653"/>
<path d="M46.4269 40.2936C47.7091 40.3434 48.6922 41.3614 48.6161 42.5629C48.5424 43.7229 47.4546 44.654 46.2387 44.599C44.9437 44.541 43.9227 43.4929 43.9899 42.2937C44.057 41.0945 45.0978 40.242 46.4284 40.2923L46.4269 40.2936Z" fill="#E56D60"/>
<path d="M2.44055 24.1808C3.72279 24.2306 4.70584 25.2487 4.62978 26.4501C4.55604 27.6102 3.46826 28.5413 2.25233 28.4863C0.957358 28.4282 -0.0636227 27.3802 0.0035121 26.1809C0.0706469 24.9817 1.11148 24.1292 2.44209 24.1796L2.44055 24.1808Z" fill="#E56D60"/>
<path d="M43.7777 22.2816C45.1155 22.3336 46.1425 23.3533 46.065 24.5547C45.9897 25.7147 44.8581 26.6442 43.5894 26.5871C42.2388 26.5269 41.171 25.477 41.2396 24.2778C41.3068 23.0786 42.39 22.2278 43.7777 22.2803L43.7777 22.2816Z" fill="#E7B653"/>
<path d="M75.6998 31.8129C72.5623 28.8474 67.6436 28.4306 64.1 30.9627C61.4152 32.8818 60.254 35.4909 60.6267 38.5034C61.058 41.9867 63.1249 44.4499 66.9342 45.6348C67.4806 45.8052 68.0645 45.8837 68.7583 46.0158C68.8743 46.0384 68.9939 46.0522 69.1121 46.0633C68.96 46.422 68.5635 47.3203 68.1894 47.8185C67.9723 48.1073 68.4406 48.2046 69.013 48.2255C69.0339 49.2153 69.1001 53.3788 68.7656 54.8207L69.1723 54.8923C69.5185 53.399 69.4512 49.2549 69.428 48.2287C69.6365 48.2251 69.8394 48.2161 70.0145 48.206C70.2441 48.1929 70.3754 47.9695 70.2591 47.795C69.9371 47.3101 69.435 46.4794 69.4748 46.0825C69.7223 46.0895 70.0079 46.0967 70.162 46.0962C71.9237 46.0971 73.5014 45.6393 74.8572 44.6108C79.2099 41.3028 79.5951 35.4956 75.6998 31.8129Z" fill="#4C4039"/>
<path d="M66.2171 4.11347C64.0688 0.325964 59.6853 -1.05645 55.8905 0.854613C52.9077 2.35723 50.9852 6.01523 51.4085 9.38144C51.921 13.4585 54.8116 16.6414 59.1229 16.7985C58.9978 17.0155 58.829 17.2802 58.6318 17.4997C58.4487 17.7054 58.7774 17.8869 59.2175 17.991C59.2146 19.1953 59.1716 22.1125 58.831 24.1875L59.2418 24.2385C59.58 22.1803 59.6289 19.3152 59.6331 18.0616C59.7964 18.0796 59.9588 18.0872 60.1044 18.0799C60.3074 18.0709 60.4222 17.9067 60.318 17.7767C60.1082 17.5142 59.8136 17.1173 59.6785 16.8058C59.8706 16.8067 60.0802 16.8084 60.171 16.8119C61.451 16.8499 62.6069 16.4574 63.6392 15.7045C67.2838 13.0439 68.4052 7.97392 66.2156 4.11342L66.2171 4.11347Z" fill="#4C4039"/>
<path d="M38.9665 13.4342C36.2624 9.19937 30.7889 7.63447 26.0748 9.74734C22.3687 11.4088 20.0007 15.4778 20.5532 19.2345C21.219 23.7704 24.8237 27.3263 30.1686 27.5455C30.0152 27.8744 29.8211 28.2511 29.5992 28.5708C29.3646 28.9095 29.7722 29.2018 30.3205 29.3658C30.2476 29.986 29.9762 32.7113 30.5954 34.7263L30.997 34.6277C30.4213 32.7533 30.6519 30.1535 30.729 29.4583C30.9674 29.4974 31.2114 29.5134 31.425 29.4983C31.6783 29.4809 31.8254 29.2101 31.6979 28.9988C31.4659 28.6108 31.1471 28.0417 30.9687 27.5597C31.1916 27.5619 31.4218 27.5643 31.5272 27.5684C33.1219 27.6174 34.5602 27.1852 35.8406 26.3498C40.3625 23.4014 41.7232 17.7515 38.9665 13.4342Z" fill="#4C4039"/>
<path d="M50.2352 43.4566C49.8456 42.8691 49.1975 41.7901 49.4874 41.5119L49.1083 41.4972C49.1083 41.4972 48.7511 42.4268 48.2567 43.0825C48.0396 43.3713 48.4173 43.6209 48.93 43.7641C48.8738 44.3226 48.617 47.0758 48.7304 49.7408L49.145 49.7244C49.0362 47.1608 49.274 44.5107 49.3389 43.8501C49.5585 43.8832 49.7823 43.8958 49.978 43.884C50.2165 43.8699 50.3526 43.6389 50.2323 43.4565L50.2352 43.4566Z" fill="#4C4039"/>
<path d="M49.1914 42.2103C44.0216 42.1121 40.5368 38.5374 39.9134 33.9513C39.4053 30.2144 41.6463 26.1613 45.141 24.5007C49.5867 22.3878 54.7356 23.9336 57.2695 28.1424C59.8532 32.4322 58.554 38.0573 54.2878 41C53.0792 41.8343 51.7246 42.2658 50.2221 42.2205C50.0024 42.2145 49.1914 42.2103 49.1914 42.2103Z" fill="#4C4039"/>
<path d="M42.2652 27.5978C41.9051 27.5838 41.5738 27.7111 41.339 27.9226C41.2232 28.1037 41.1132 28.2876 41.0102 28.4757C41.0002 28.5246 40.9915 28.5749 40.9886 28.6267C40.9553 29.2212 41.4728 29.7241 42.1447 29.7501C42.6014 29.7679 43.2358 29.3097 43.2691 28.7153C43.3024 28.1209 42.9371 27.6239 42.2652 27.5978Z" fill="#E7B653"/>
<path d="M47.3756 26.1778C47.3423 26.7722 46.7858 26.9648 46.114 26.9387C45.4421 26.9126 44.9095 26.6791 44.9429 26.0834C44.9762 25.4876 45.5476 25.0283 46.2195 25.0544C46.8913 25.0805 47.4089 25.5834 47.3756 26.1778Z" fill="#E7B653"/>
<path d="M48.6036 29.6848C48.1515 29.2455 48.0959 28.6398 48.629 28.2102C49.1621 27.7805 49.9581 27.7893 50.4103 28.2287C50.8624 28.6681 50.7966 29.3715 50.2651 29.8C49.7335 30.2284 49.0559 30.1229 48.6036 29.6848Z" fill="#E7B653"/>
<path d="M54.21 32.1078C54.1768 32.7023 53.7312 33.1678 53.0139 33.1399C52.2967 33.1121 51.7426 32.6077 51.7758 32.0133C51.8091 31.4189 52.4172 30.9597 53.1344 30.9875C53.8517 31.0154 54.2433 31.5134 54.21 32.1078Z" fill="#E7B653"/>
<path d="M50.3875 34.9945C50.3522 35.6264 49.9312 36.1228 49.2594 36.0967C48.5875 36.0706 48.0717 35.5379 48.107 34.9059C48.1424 34.2739 48.7156 33.7835 49.3874 33.8096C50.0593 33.8357 50.4229 34.3625 50.3875 34.9945Z" fill="#E7B653"/>
<path d="M46.5684 37.8823C46.5351 38.4767 46.1159 38.9432 45.444 38.9172C44.7722 38.8911 44.2546 38.3882 44.2879 37.7937C44.3212 37.1993 44.8927 36.7387 45.5645 36.7648C46.2364 36.7909 46.6017 37.2879 46.5684 37.8823Z" fill="#E7B653"/>
<path d="M45.8671 41.6057C45.7826 41.1508 45.4381 40.8052 44.8819 40.7836C44.6872 40.776 44.5019 40.8103 44.334 40.8752C44.8123 41.1611 45.3238 41.4055 45.8672 41.6044L45.8671 41.6057Z" fill="#E7B653"/>
<path d="M50.0871 40.3779C50.06 40.861 49.6721 41.2392 49.0442 41.2148C48.4162 41.1904 47.9302 40.7796 47.9573 40.2952C47.9844 39.8109 48.5142 39.4395 49.1422 39.4639C49.7701 39.4882 50.1142 39.8936 50.0871 40.3779Z" fill="#E7B653"/>
<path d="M53.7199 38.0924C53.6887 38.6493 53.2711 39.086 52.5993 39.0599C51.9274 39.0339 51.4082 38.5607 51.4394 38.0039C51.4706 37.447 52.0404 37.0162 52.7122 37.0423C53.3841 37.0683 53.7511 37.5356 53.7199 38.0924Z" fill="#E7B653"/>
<path d="M57.5465 35.1368C57.5153 35.6937 57.0714 36.1294 56.3541 36.1016C55.6369 36.0737 55.0811 35.5992 55.1123 35.0423C55.1434 34.4855 55.7499 34.0561 56.4671 34.0839C57.1843 34.1118 57.5776 34.58 57.5465 35.1368Z" fill="#E7B653"/>
<path d="M54.3737 26.4495C54.3446 26.9701 53.9287 27.3758 53.2569 27.3497C52.585 27.3236 52.0641 26.8803 52.0932 26.361C52.1223 25.8417 52.6904 25.4406 53.3623 25.4667C54.0341 25.4928 54.4028 25.9302 54.3737 26.4495Z" fill="#E7B653"/>
<path d="M56.9155 30.0546C57.4644 30.0759 57.8339 29.9475 57.9706 29.5764C57.7911 29.1126 57.5731 28.6577 57.3132 28.2167C57.2237 28.1912 57.1263 28.1744 57.0224 28.1704C56.3506 28.1443 55.7791 28.6049 55.7458 29.1993C55.7125 29.7938 56.2451 30.0286 56.9169 30.0547L56.9155 30.0546Z" fill="#E7B653"/>
<path d="M46.915 31.6891C46.8818 32.2836 46.2952 33.0135 45.6233 32.9875C44.9515 32.9614 44.2968 32.1832 44.3301 31.5888C44.3633 30.9943 45.087 30.5396 45.7589 30.5657C46.4308 30.5918 46.9483 31.0947 46.915 31.6891Z" fill="#E7B653"/>
<path d="M42.7854 34.6326C42.7563 35.1532 42.3404 35.5589 41.6686 35.5328C40.9967 35.5067 40.4758 35.0634 40.5049 34.5441C40.534 34.0247 41.1021 33.6237 41.774 33.6498C42.4458 33.6759 42.8145 34.1133 42.7854 34.6326Z" fill="#E7B653"/>
<path d="M79.6503 23.4184C79.8782 23.513 80.1012 23.4866 80.3048 23.3608C80.5905 23.185 80.6493 22.8667 80.4474 22.5954C80.3465 22.4591 80.2017 22.373 80.0375 22.3446L79.6389 23.4115C79.6389 23.4115 79.646 23.4157 79.6504 23.4171L79.6503 23.4184Z" fill="#EFE3C2"/>
<path d="M81.5156 20.0336C81.8012 19.8578 81.8601 19.5395 81.6582 19.2682C81.5627 19.1399 81.428 19.0555 81.2744 19.0223L80.8741 20.0943C81.098 20.1822 81.3151 20.1556 81.5156 20.0323L81.5156 20.0336Z" fill="#EFE3C2"/>
<path d="M81.6952 18.3052C81.9232 18.3997 82.1461 18.3733 82.3498 18.2476C82.6354 18.0718 82.6943 17.7535 82.4923 17.4822C82.3641 17.3098 82.1654 17.2177 81.9465 17.2222L81.5685 18.2367C81.6067 18.2615 81.6479 18.2852 81.6953 18.3039L81.6952 18.3052Z" fill="#EFE3C2"/>
<path d="M87.0135 23.2696C86.8361 23.0317 86.5368 22.9279 86.2264 22.9963C85.9264 23.0626 85.699 23.299 85.6866 23.5724C85.6855 23.5918 85.6838 23.6229 85.6878 23.6555C85.6877 23.6568 85.6876 23.6594 85.6875 23.6607L87.1104 23.4525C87.0874 23.3906 87.0586 23.3285 87.0135 23.2696Z" fill="#EFE3C2"/>
<path d="M78.5532 27.7384L77.9559 30.5458L93.4875 28.5051L91.866 25.7647L78.5532 27.7384Z" fill="#4CABA2"/>
</svg>
