<svg width="46" height="43" viewBox="0 0 46 43" fill="none" xmlns="http://www.w3.org/2000/svg">
<g clip-path="url(#clip0_386_1954)">
<path d="M5.4 23.7951H2C1.44772 23.7951 1 23.3474 1 22.7951V16.0726C1 15.5203 1.44772 15.0726 2 15.0726H16.4M5.4 23.7951V40.2403C5.4 40.7925 5.84772 41.2403 6.4 41.2403H23M5.4 23.7951H23M16.4 15.0726H27.4M16.4 15.0726C16.4 15.0726 12.8 11.9499 9.5 9.24025C7.52554 7.61902 6.92033 3.83671 8.7 1.98869C10.7974 -0.189213 14.8521 1.60939 17 3.73837C19.1479 5.86736 19.7521 6.40163 21.9 8.53062M16.4 15.0726L21.9 12.8919M23 41.2403H39.6C40.1523 41.2403 40.6 40.7925 40.6 40.2403V23.7951M23 41.2403V23.7951M23 23.7951H40.6M40.6 23.7951H44C44.5523 23.7951 45 23.3474 45 22.7951V16.0726C45 15.5203 44.5523 15.0726 44 15.0726H27.4M27.4 15.0726C27.4 15.0726 32 10.7384 34 8.53062C35.4293 6.95279 35.375 4.71454 34 3.07901C32.3499 1.11638 28.9161 2.01443 27 3.73837C24.6 5.89773 21.9 8.53062 21.9 8.53062M27.4 15.0726L21.9 12.8919M21.9 8.53062V12.8919" stroke="#FF6D22" stroke-width="2"/>
</g>
<defs>
<clipPath id="clip0_386_1954">
<rect width="46" height="43" fill="white"/>
</clipPath>
</defs>
</svg>
