<svg width="30" height="43" viewBox="0 0 30 43" fill="none" xmlns="http://www.w3.org/2000/svg">
<g clip-path="url(#clip0_386_1996)">
<path d="M1.23322 17.6876C-0.299199 10.0142 5.93018 0.997564 13.7581 1C23.1491 1.00292 28.6221 8.29174 28.3669 16.6479C28.1941 22.308 21.8458 30.8137 21.8458 30.8137L14.8893 41L7.93274 31.3106C7.93274 31.3106 2.27546 22.9066 1.23322 17.6876Z" stroke="#DBBB00" stroke-width="2"/>
<path d="M7.01767 15.6142C6.72952 11.292 9.99981 7.5545 14.3221 7.26634C18.9223 6.95966 22.9767 11.014 22.67 15.6142C22.3818 19.9365 18.6443 23.2068 14.3221 22.9186C10.2969 22.6503 7.28602 19.6394 7.01767 15.6142Z" fill="#FEEEC1" stroke="#DBBB00" stroke-width="2"/>
</g>
<defs>
<clipPath id="clip0_386_1996">
<rect width="30" height="43" fill="white"/>
</clipPath>
</defs>
</svg>
