<svg width="117" height="128" viewBox="0 0 117 128" fill="none" xmlns="http://www.w3.org/2000/svg">
<g filter="url(#filter0_d_455_1483)">
<g filter="url(#filter1_dd_455_1483)">
<path d="M25.4152 63.4674C26.4895 65.7678 29.7192 68.8999 29.7192 68.8999C29.7192 68.8999 29.1087 69.5837 30.7991 72.5861C32.3475 75.3361 34.1866 76.6135 36.9813 77.791C38.7424 78.5328 41.2213 78.7983 41.2213 78.7983C41.2213 78.7983 40.4232 82.8908 45.5992 84.3355C50.775 85.7801 52.0229 81.2138 52.0229 81.2138L56.309 81.9536C56.309 81.9536 55.9349 86.785 61.1795 87.2999C64.8868 87.6639 67.3045 84.3114 67.3045 84.3114C67.3045 84.3114 74.2294 85.2573 77.5615 82.9557C79.9556 81.3021 81.0973 79.6981 81.0973 79.6981C81.0973 79.6981 86.9464 75.8596 88.5287 72.337C89.3987 70.4001 89.5432 68.1722 88.7544 66.7667C87.8402 65.1376 86.3222 64.8756 86.3222 64.8756C86.3222 64.8756 91.0708 50.7123 91.7978 39.8952C92.0717 35.8196 92.2916 31.92 89.986 28.548C88.5195 26.4029 85.2076 25.3324 85.2076 25.3324C85.2076 25.3324 88.0739 20.4472 84.2543 17.5357C78.3284 13.0186 72.2757 20.3418 72.2757 20.3418L57.6899 18.0081C57.6899 18.0081 56.8791 13.9776 55.4308 11.917C53.1321 8.64635 49.0837 7.6431 45.4791 9.37191C42.006 11.0377 42.4695 17.22 42.4695 17.22C42.4695 17.22 38.6782 19.5044 36.8123 21.7617C34.2206 24.8966 33.9085 27.5427 32.8383 31.4667C31.7682 35.3907 31.5777 37.8392 31.0118 42.2298C30.4603 46.5091 29.632 55.7313 29.632 55.7313C29.632 55.7313 28.5361 55.8006 27.7537 55.9589C26.2691 56.2595 25.0178 56.8923 24.7603 58.3848C24.2745 61.1996 25.0417 62.6673 25.4152 63.4674Z" fill="white"/>
<path d="M25.4152 63.4674C26.4895 65.7678 29.7192 68.8999 29.7192 68.8999C29.7192 68.8999 29.1087 69.5837 30.7991 72.5861C32.3475 75.3361 34.1866 76.6135 36.9813 77.791C38.7424 78.5328 41.2213 78.7983 41.2213 78.7983C41.2213 78.7983 40.4232 82.8908 45.5992 84.3355C50.775 85.7801 52.0229 81.2138 52.0229 81.2138L56.309 81.9536C56.309 81.9536 55.9349 86.785 61.1795 87.2999C64.8868 87.6639 67.3045 84.3114 67.3045 84.3114C67.3045 84.3114 74.2294 85.2573 77.5615 82.9557C79.9556 81.3021 81.0973 79.6981 81.0973 79.6981C81.0973 79.6981 86.9464 75.8596 88.5287 72.337C89.3987 70.4001 89.5432 68.1722 88.7544 66.7667C87.8402 65.1376 86.3222 64.8756 86.3222 64.8756C86.3222 64.8756 91.0708 50.7123 91.7978 39.8952C92.0717 35.8196 92.2916 31.92 89.986 28.548C88.5195 26.4029 85.2076 25.3324 85.2076 25.3324C85.2076 25.3324 88.0739 20.4472 84.2543 17.5357C78.3284 13.0186 72.2757 20.3418 72.2757 20.3418L57.6899 18.0081C57.6899 18.0081 56.8791 13.9776 55.4308 11.917C53.1321 8.64635 49.0837 7.6431 45.4791 9.37191C42.006 11.0377 42.4695 17.22 42.4695 17.22C42.4695 17.22 38.6782 19.5044 36.8123 21.7617C34.2206 24.8966 33.9085 27.5427 32.8383 31.4667C31.7682 35.3907 31.5777 37.8392 31.0118 42.2298C30.4603 46.5091 29.632 55.7313 29.632 55.7313C29.632 55.7313 28.5361 55.8006 27.7537 55.9589C26.2691 56.2595 25.0178 56.8923 24.7603 58.3848C24.2745 61.1996 25.0417 62.6673 25.4152 63.4674Z" stroke="white"/>
</g>
<path d="M46.1262 83.5936C41.5722 82.8076 42.5984 77.9272 42.5984 77.9272L51.7065 79.4991C51.7065 79.4991 51.3053 84.4874 46.1262 83.5936Z" fill="#00B2C7"/>
<path d="M61.3388 86.035C56.754 85.4276 57.7802 80.5472 57.7802 80.5472L66.8144 82.0145C66.8144 82.0145 66.1934 86.6781 61.3388 86.035Z" fill="#00B2C7"/>
<path d="M87.8431 68.8556C88.5847 72.018 84.7442 74.8512 81.7823 77.3333C80.4776 78.4267 79.0323 78.8817 79.0323 78.8817C79.0323 78.8817 81.0028 75.308 82.2142 72.1664C82.9439 70.2743 83.647 66.5286 83.647 66.5286C83.647 66.5286 87.1016 65.6931 87.8431 68.8556Z" fill="#00B2C7"/>
<path d="M26.9679 58.2266C23.4809 60.8346 31.2733 68.72 31.2733 68.72C31.2733 68.72 31.3962 64.6343 31.3736 62.8651C31.3423 60.4104 31.8434 57.7858 31.8434 57.7858C31.8434 57.7858 28.6563 57.0598 26.9679 58.2266Z" fill="#00B2C7"/>
<path d="M27.6829 60.4563C27.241 62.1101 28.1933 64.958 28.1933 64.958C28.1933 64.958 25.0288 60.9172 26.3961 58.8547C27.421 57.2594 29.1737 57.6791 29.1737 57.6791C29.1737 57.6791 28.025 59.1761 27.6829 60.4563Z" fill="black" fill-opacity="0.15"/>
<path d="M47.8703 11.158C42.0895 13.1524 44.574 19.6001 44.574 19.6001C44.574 19.6001 47.9446 19.1912 50.2522 19.2015C52.8356 19.213 56.9403 19.8767 56.9403 19.8767C56.9403 19.8767 55.331 8.58403 47.8703 11.158Z" fill="#00B2C7"/>
<path d="M82.6756 17.8088C87.1938 19.9362 83.6411 26.0674 83.6411 26.0674C83.6411 26.0674 79.946 24.9281 77.5259 24.2038C75.3197 23.5434 71.7712 22.9156 71.7712 22.9156C71.7712 22.9156 77.7432 15.4864 82.6756 17.8088Z" fill="#00B2C7"/>
<path d="M65.3139 21.4337C63.7066 21.1562 47.7054 16.8628 42.2322 19.8412C35.6566 23.4194 34.389 34.9166 32.9816 43.0714C31.4561 51.9116 31.9081 53.5541 31.3345 60.0745C30.8809 65.2316 30.343 70.0582 33.6077 74.0761C35.0149 75.8081 37.8273 77.3804 40.6767 77.8722L40.7346 77.8822C54.7973 80.3092 59.1761 81.0649 70.5045 82.4678C72.1077 82.6663 75.3526 82.352 76.7371 81.5197C79.4232 79.9047 81.037 76.0366 81.9699 73.0447C84.8534 63.7963 86.4059 60.6615 88.1168 50.7486C89.379 43.4348 90.727 37.2225 89.2253 31.538C88.4244 28.5063 84.1179 25.8782 81.6792 25.1781C72.0417 22.4113 67.3676 21.7882 65.3139 21.4337Z" fill="#00B2C7" stroke="#008A9A"/>
<path d="M56.4928 42.7155C56.4928 42.7155 57.0467 44.8341 58.2968 45.0498C59.2562 45.2154 60.7572 44.6469 60.7572 44.6469M60.7572 44.6469C60.7572 44.6469 61.9767 46.0779 63.0571 46.2392C64.5275 46.4588 66.4045 44.4261 66.4045 44.4261M60.7572 44.6469L61.0777 43.3228" stroke="black" stroke-width="3" stroke-linecap="round"/>
<path d="M42.956 41.7548C43.255 40.9792 45.2003 40.5423 46.6694 41.0202C47.8929 41.4182 49.3457 42.0304 49.3236 43.2216C49.3084 44.0374 47.4217 44.4102 46.0998 44.3208C44.4043 44.206 42.5236 42.876 42.956 41.7548Z" fill="#F58D88"/>
<path d="M72.2412 46.9401C72.5404 46.1645 74.4856 45.7276 75.9548 46.2056C77.1782 46.6036 78.631 47.2157 78.6088 48.4069C78.5936 49.2227 76.7071 49.5956 75.3852 49.5061C73.6896 49.3913 71.8088 48.0613 72.2412 46.9401Z" fill="#F58D88"/>
<path d="M44.9881 37.9716C45.1766 36.4243 46.2752 35.3345 47.8338 35.3359C49.5328 35.3376 50.9581 36.7398 50.8848 38.4372C50.8103 40.1667 49.1742 41.4679 47.4571 41.2479C45.8161 41.0379 44.7881 39.6139 44.9881 37.9716Z" fill="black"/>
<path d="M48.0591 37.7656C47.8757 37.0444 48.4121 36.2381 49.1555 36.2077C49.8625 36.1785 50.4349 36.8189 50.3993 37.5258C50.3672 38.1628 49.9123 38.6798 49.2752 38.7111C48.6743 38.7405 48.2071 38.3485 48.0591 37.7656Z" fill="white"/>
<path d="M46.2038 38.9167C46.2088 38.5828 46.4397 38.2758 46.7736 38.2794C47.1498 38.2832 47.3896 38.7432 47.2754 39.1016C47.1841 39.3877 46.9429 39.596 46.6471 39.5449C46.3512 39.4939 46.1991 39.2169 46.2038 38.9167Z" fill="white"/>
<path d="M72.5933 42.6887C72.7817 41.1414 73.8803 40.0515 75.439 40.0531C77.1379 40.0548 78.5632 41.4569 78.49 43.1544C78.4153 44.8839 76.7795 46.185 75.0624 45.9652C73.4212 45.7549 72.3932 44.331 72.5933 42.6887Z" fill="black"/>
<path d="M75.6622 42.4828C75.479 41.7617 76.0154 40.9553 76.7587 40.9249C77.4659 40.8958 78.038 41.5361 78.0025 42.243C77.9705 42.8801 77.5155 43.397 76.8784 43.4283C76.2774 43.4578 75.8104 43.0658 75.6622 42.4828Z" fill="white"/>
<path d="M73.81 43.6341C73.8152 43.3003 74.0458 42.9933 74.3798 42.9968C74.7559 43.0009 74.9958 43.4607 74.8815 43.8191C74.7902 44.1051 74.5492 44.3135 74.2533 44.2624C73.9574 44.2113 73.8054 43.9344 73.81 43.6341Z" fill="white"/>
<path d="M55.5015 54.3157C48.5894 55.0034 47.7051 52.6019 39.8517 58.1435C37.1859 60.0244 37.8646 65.1532 38.0248 67.6675C38.256 71.299 42.409 72.102 44.2221 72.7831C44.5183 72.8945 49.0444 73.6153 49.6694 73.7232C54.5807 74.5708 51.5405 74.6834 56.1232 75.7562C58.9962 76.4288 59.7725 75.9266 61.6472 76.2502C62.2399 76.3525 64.1961 76.6149 64.7718 76.7894C65.4715 77.0018 66.1143 77.5398 66.7493 77.5901C71.3157 77.9516 74.6428 76.3076 75.9146 71.907C77.5821 66.1368 72.2362 57.6621 66.3334 56.5524C64.9267 56.2879 64.2439 56.6629 62.9093 56.1459C61.8319 55.7284 60.8629 55.0273 59.7601 54.6824C58.5395 54.3008 56.7741 54.189 55.5015 54.3157Z" fill="#FAFAFA"/>
<path d="M44.3337 14.594C45.2518 11.9019 47.6752 11.2167 47.6752 11.2167C47.6752 11.2167 45.8656 13.535 45.5221 15.1669C45.3015 16.215 45.6355 18.7727 45.6355 18.7727L44.3976 19.0189C44.3976 19.0189 41.042 20.8792 40.1941 22.4313C37.7075 26.983 37.4006 29.5598 36.5185 34.6706C35.1161 42.7965 33.7476 49.8247 33.2195 58.7451C33.0276 61.9874 32.982 63.8436 33.4398 67.059C33.6974 68.8675 33.5237 70.0333 34.3967 71.638C35.7281 74.085 37.4676 75.2944 40.2127 75.7682C49.8565 77.4326 54.5956 78.1585 63.8019 79.7474C68.8024 80.6104 70.8742 81.3934 74.8037 81.0025C76.1847 80.8651 78.308 80.4119 78.308 80.4119C78.308 80.4119 76.2786 82.5805 72.8728 82.6003C71.165 82.6103 68.5096 82.307 68.5096 82.307L57.7326 80.8149L51.6451 79.8562L42.537 78.2843C42.537 78.2843 39.1212 77.8574 37.1825 76.8085C35.0243 75.6408 33.8265 74.9419 32.4105 72.4906C31.7365 71.3242 31.0778 68.4905 31.0778 68.4905L29.834 67.1724C29.834 67.1724 30.3799 63.6471 30.5923 62.2457C30.9458 59.9144 30.8284 57.5968 30.8284 57.5968L31.4535 57.7047C31.4535 57.7047 31.5523 48.1585 34.0331 36.4486C34.8961 31.4481 36.157 25.2416 40.2433 21.2444C42.4009 19.134 44.3976 19.0189 44.3976 19.0189C44.3976 19.0189 43.6819 16.5045 44.3337 14.594Z" fill="black" fill-opacity="0.15"/>
<path d="M81.7289 73.646C82.3975 71.3706 83.622 68.2716 83.622 68.2716C83.622 68.2716 83.2489 69.4966 83.0889 70.2945C82.754 71.9658 82.4954 73.0614 82.1398 74.7284C81.8224 76.2167 82.2164 76.9486 82.2164 76.9486C82.2164 76.9486 81.4848 77.6155 80.9892 77.9322C80.5119 78.2371 79.7189 78.6325 79.7189 78.6325C79.7189 78.6325 81.2667 75.2189 81.7289 73.646Z" fill="black" fill-opacity="0.15"/>
<path d="M73.6198 22.867L72.0466 22.5955C72.0466 22.5955 73.0129 21.4561 74.005 20.6346C75.8775 18.8429 77.759 18.0641 77.759 18.0641C77.759 18.0641 76.1506 19.74 75.1659 20.835C74.4556 21.6248 73.6198 22.867 73.6198 22.867Z" fill="black" fill-opacity="0.15"/>
<path d="M53.3027 64.6828C53.6083 62.563 55.3864 61.0845 57.5258 61.1837C59.8185 61.2899 61.5887 63.3191 61.3963 65.6062C61.2046 67.8867 59.1386 69.5863 56.8652 69.3226C54.5959 69.0595 52.977 66.944 53.3027 64.6828Z" fill="#FFCA00" stroke="#FFCA00" stroke-width="0.36783"/>
<path d="M59.9862 65.9374C60.349 66 60.6939 65.7566 60.7565 65.3938C60.8191 65.031 60.5758 64.6861 60.2129 64.6235C59.8501 64.5609 59.5052 64.8042 59.4426 65.167C59.38 65.5299 59.6234 65.8747 59.9862 65.9374Z" fill="#FFA406"/>
<path d="M54.2451 65.8935C54.6079 65.9561 54.9528 65.7127 55.0154 65.3499C55.078 64.9871 54.8346 64.6422 54.4718 64.5796C54.109 64.517 53.7641 64.7603 53.7015 65.1231C53.6389 65.486 53.8823 65.8308 54.2451 65.8935Z" fill="#FFA406"/>
<path d="M55.4742 64.4487C55.4742 64.4487 55.6985 64.1527 55.9367 64.1221C56.248 64.0818 56.4835 64.2847 56.4835 64.2847M58.0399 64.2826C58.0399 64.2826 58.2223 64.0089 58.5508 64.0665C58.848 64.1186 58.9268 64.4356 58.9268 64.4356M58.5889 66.0011C58.5889 66.0011 58.2002 66.8811 57.3836 66.9092C56.5669 66.9374 56.0618 66.14 56.0618 66.14" stroke="black" stroke-width="0.36783"/>
<path d="M64.2812 65.7327C63.5264 65.8046 63.2306 65.7535 62.6593 65.7233C62.4034 65.71 62.1136 65.5635 62.0552 65.3138C61.9859 65.0182 62.2647 64.6967 62.5682 64.6921L62.583 64.6918C63.1173 64.6838 63.5521 64.6774 64.1189 64.723C64.4859 64.7525 64.6474 64.9661 64.6348 65.2527C64.6244 65.4852 64.5131 65.7108 64.2812 65.7327Z" fill="#FFCA00"/>
<path d="M62.0654 67.2104C62.1523 66.9181 62.4535 66.7202 62.7418 66.8199C62.9859 66.9044 63.0983 67.1283 63.0838 67.3862C63.0667 67.6854 62.8487 67.9404 62.549 67.9367C62.2083 67.9323 61.9686 67.5371 62.0654 67.2104Z" fill="#FFCA00"/>
<path d="M62.0076 62.8368C62.0944 62.5445 62.3956 62.3466 62.6838 62.4461C62.9279 62.5306 63.0404 62.7547 63.0257 63.0125C63.0087 63.3118 62.7907 63.5667 62.491 63.563C62.1504 63.5587 61.9106 63.1634 62.0076 62.8368Z" fill="#FFCA00"/>
<path d="M58.9517 59.7723C59.0384 59.48 59.3396 59.282 59.6278 59.3816C59.872 59.4661 59.9845 59.6902 59.9698 59.9481C59.9527 60.2473 59.7348 60.5023 59.4351 60.4984C59.0945 60.4942 58.8547 60.0989 58.9517 59.7723Z" fill="#FFCA00"/>
<path d="M54.5836 59.7969C54.6702 59.5045 54.9714 59.3066 55.2597 59.4061C55.5039 59.4906 55.6164 59.7145 55.6017 59.9726C55.5846 60.2718 55.3667 60.5266 55.067 60.5229C54.7264 60.5187 54.4865 60.1235 54.5836 59.7969Z" fill="#FFCA00"/>
<path d="M51.5482 62.892C51.635 62.5995 51.9361 62.4017 52.2244 62.5013C52.4686 62.5857 52.5811 62.8097 52.5664 63.0677C52.5493 63.3667 52.3314 63.6217 52.0317 63.618C51.6911 63.6137 51.4513 63.2184 51.5482 62.892Z" fill="#FFCA00"/>
<path d="M51.5453 67.2204C51.6322 66.9281 51.9334 66.7301 52.2216 66.8297C52.4658 66.9142 52.5782 67.1381 52.5634 67.3961C52.5466 67.6954 52.3284 67.9501 52.0289 67.9464C51.6881 67.9422 51.4483 67.547 51.5453 67.2204Z" fill="#FFCA00"/>
<path d="M54.6611 70.3289C54.7479 70.0366 55.0491 69.8386 55.3372 69.9384C55.5814 70.0228 55.6939 70.2467 55.6792 70.5046C55.6621 70.8038 55.4441 71.0588 55.1445 71.0551C54.8039 71.0507 54.564 70.6555 54.6611 70.3289Z" fill="#FFCA00"/>
<path d="M59.0292 70.3046C59.116 70.0123 59.4172 69.8143 59.7053 69.9141C59.9495 69.9983 60.062 70.2224 60.0473 70.4803C60.0302 70.7795 59.8123 71.0345 59.5126 71.0308C59.172 71.0265 58.9322 70.6312 59.0292 70.3046Z" fill="#FFCA00"/>
<path d="M64.2812 65.7327C63.5264 65.8046 63.2306 65.7535 62.6593 65.7233C62.4034 65.71 62.1136 65.5635 62.0552 65.3138C61.9859 65.0182 62.2647 64.6967 62.5682 64.6921L62.583 64.6918C63.1173 64.6838 63.5521 64.6774 64.1189 64.723C64.4859 64.7525 64.6474 64.9661 64.6348 65.2527C64.6244 65.4852 64.5131 65.7108 64.2812 65.7327Z" stroke="#FFCA00" stroke-width="0.36783"/>
<path d="M62.0654 67.2104C62.1523 66.9181 62.4535 66.7202 62.7418 66.8199C62.9859 66.9044 63.0983 67.1283 63.0838 67.3862C63.0667 67.6854 62.8487 67.9404 62.549 67.9367C62.2083 67.9323 61.9686 67.5371 62.0654 67.2104Z" stroke="#FFCA00" stroke-width="0.36783"/>
<path d="M62.0076 62.8368C62.0944 62.5445 62.3956 62.3466 62.6838 62.4461C62.9279 62.5306 63.0404 62.7547 63.0257 63.0125C63.0087 63.3118 62.7907 63.5667 62.491 63.563C62.1504 63.5587 61.9106 63.1634 62.0076 62.8368Z" stroke="#FFCA00" stroke-width="0.36783"/>
<path d="M58.9517 59.7723C59.0384 59.48 59.3396 59.282 59.6278 59.3816C59.872 59.4661 59.9845 59.6902 59.9698 59.9481C59.9527 60.2473 59.7348 60.5023 59.4351 60.4984C59.0945 60.4942 58.8547 60.0989 58.9517 59.7723Z" stroke="#FFCA00" stroke-width="0.36783"/>
<path d="M54.5836 59.7969C54.6702 59.5045 54.9714 59.3066 55.2597 59.4061C55.5039 59.4906 55.6164 59.7145 55.6017 59.9726C55.5846 60.2718 55.3667 60.5266 55.067 60.5229C54.7264 60.5187 54.4865 60.1235 54.5836 59.7969Z" stroke="#FFCA00" stroke-width="0.36783"/>
<path d="M51.5482 62.892C51.635 62.5995 51.9361 62.4017 52.2244 62.5013C52.4686 62.5857 52.5811 62.8097 52.5664 63.0677C52.5493 63.3667 52.3314 63.6217 52.0317 63.618C51.6911 63.6137 51.4513 63.2184 51.5482 62.892Z" stroke="#FFCA00" stroke-width="0.36783"/>
<path d="M51.5453 67.2204C51.6322 66.9281 51.9334 66.7301 52.2216 66.8297C52.4658 66.9142 52.5782 67.1381 52.5634 67.3961C52.5466 67.6954 52.3284 67.9501 52.0289 67.9464C51.6881 67.9422 51.4483 67.547 51.5453 67.2204Z" stroke="#FFCA00" stroke-width="0.36783"/>
<path d="M54.6611 70.3289C54.7479 70.0366 55.0491 69.8386 55.3372 69.9384C55.5814 70.0228 55.6939 70.2467 55.6792 70.5046C55.6621 70.8038 55.4441 71.0588 55.1445 71.0551C54.8039 71.0507 54.564 70.6555 54.6611 70.3289Z" stroke="#FFCA00" stroke-width="0.36783"/>
<path d="M59.0292 70.3046C59.116 70.0123 59.4172 69.8143 59.7053 69.9141C59.9495 69.9983 60.062 70.2224 60.0473 70.4803C60.0302 70.7795 59.8123 71.0345 59.5126 71.0308C59.172 71.0265 58.9322 70.6312 59.0292 70.3046Z" stroke="#FFCA00" stroke-width="0.36783"/>
<path d="M62.6228 60.649C62.1474 61.2399 61.9046 61.4161 61.4844 61.8046C61.2962 61.9787 60.9891 62.084 60.7694 61.9518C60.5093 61.7952 60.4735 61.371 60.6821 61.1503L60.6922 61.1397C61.0592 60.7512 61.3578 60.4351 61.786 60.0608C62.063 59.8184 62.3289 59.852 62.5253 60.0608C62.6849 60.2305 62.7686 60.4676 62.6228 60.649Z" fill="#FFCA00" stroke="#FFCA00" stroke-width="0.36783"/>
<path d="M57.8556 58.241C57.908 58.9976 57.8495 59.2919 57.805 59.8623C57.7849 60.1179 57.631 60.4038 57.3799 60.4559C57.0826 60.5175 56.7684 60.2305 56.7715 59.927L56.7716 59.9123C56.7774 59.378 56.782 58.9431 56.8419 58.3776C56.8808 58.0115 57.0986 57.8555 57.3847 57.8754C57.6169 57.8916 57.8396 58.0087 57.8556 58.241Z" fill="#FFCA00" stroke="#FFCA00" stroke-width="0.36783"/>
<path d="M52.762 59.8821C53.3473 60.3644 53.5205 60.6093 53.9041 61.0339C54.0759 61.2243 54.1776 61.5326 54.0426 61.7508C53.883 62.0089 53.4585 62.0399 53.2402 61.8286L53.2296 61.8185C52.8456 61.4468 52.5331 61.1444 52.164 60.7119C51.9248 60.4319 51.9615 60.1664 52.1726 59.9726C52.3441 59.815 52.5823 59.734 52.762 59.8821Z" fill="#FFCA00" stroke="#FFCA00" stroke-width="0.36783"/>
<path d="M50.3196 64.6433C51.0748 64.5737 51.3704 64.6255 51.9417 64.6571C52.1977 64.6711 52.4869 64.8185 52.5448 65.0683C52.6132 65.3641 52.3335 65.6849 52.0299 65.6888L52.0152 65.6888C51.4809 65.6954 51.046 65.7007 50.4794 65.6537C50.1124 65.6232 49.9515 65.409 49.9649 65.1226C49.9758 64.89 50.0879 64.6647 50.3196 64.6433Z" fill="#FFCA00" stroke="#FFCA00" stroke-width="0.36783"/>
<path d="M51.9518 69.6811C52.446 69.1058 52.6944 68.9377 53.1269 68.5631C53.3206 68.3951 53.6311 68.3 53.8464 68.4392C54.1013 68.6042 54.1234 69.0293 53.9077 69.243L53.8973 69.2533C53.5179 69.6296 53.209 69.936 52.7691 70.2961C52.4842 70.5294 52.2195 70.4872 52.03 70.2723C51.8761 70.0975 51.8 69.8578 51.9518 69.6811Z" fill="#FFCA00" stroke="#FFCA00" stroke-width="0.36783"/>
<path d="M56.6911 72.1136C56.6372 71.3572 56.6953 71.0629 56.7388 70.4924C56.7583 70.2366 56.9118 69.9504 57.1627 69.8979C57.4598 69.8357 57.7747 70.1222 57.7721 70.4257L57.772 70.4404C57.7673 70.9748 57.7636 71.4096 57.7046 71.9751C57.6664 72.3413 57.4487 72.4977 57.1628 72.4784C56.9305 72.4625 56.7076 72.3459 56.6911 72.1136Z" fill="#FFCA00" stroke="#FFCA00" stroke-width="0.36783"/>
<path d="M61.8369 70.5074C61.2598 70.0154 61.0907 69.7677 60.7145 69.3366C60.5459 69.1433 60.4493 68.8333 60.5879 68.6176C60.7519 68.3621 61.177 68.3384 61.3915 68.5532L61.4018 68.5635C61.7796 68.9415 62.087 69.2493 62.4488 69.688C62.683 69.9719 62.6421 70.2367 62.4277 70.427C62.2536 70.5816 62.014 70.6587 61.8369 70.5074Z" fill="#FFCA00" stroke="#FFCA00" stroke-width="0.36783"/>
</g>
<defs>
<filter id="filter0_d_455_1483" x="16.9719" y="4.92085" width="82.6242" height="94.0562" filterUnits="userSpaceOnUse" color-interpolation-filters="sRGB">
<feFlood flood-opacity="0" result="BackgroundImageFix"/>
<feColorMatrix in="SourceAlpha" type="matrix" values="0 0 0 0 0 0 0 0 0 0 0 0 0 0 0 0 0 0 127 0" result="hardAlpha"/>
<feOffset dy="4"/>
<feGaussianBlur stdDeviation="3.55"/>
<feComposite in2="hardAlpha" operator="out"/>
<feColorMatrix type="matrix" values="0 0 0 0 0.0599127 0 0 0 0 0.0500333 0 0 0 0 0.156731 0 0 0 0.22 0"/>
<feBlend mode="normal" in2="BackgroundImageFix" result="effect1_dropShadow_455_1483"/>
<feBlend mode="normal" in="SourceGraphic" in2="effect1_dropShadow_455_1483" result="shape"/>
</filter>
<filter id="filter1_dd_455_1483" x="0" y="0" width="116.568" height="128" filterUnits="userSpaceOnUse" color-interpolation-filters="sRGB">
<feFlood flood-opacity="0" result="BackgroundImageFix"/>
<feColorMatrix in="SourceAlpha" type="matrix" values="0 0 0 0 0 0 0 0 0 0 0 0 0 0 0 0 0 0 127 0" result="hardAlpha"/>
<feOffset dy="4"/>
<feGaussianBlur stdDeviation="3"/>
<feColorMatrix type="matrix" values="0 0 0 0 0.0627451 0 0 0 0 0.0980392 0 0 0 0 0.156863 0 0 0 0.03 0"/>
<feBlend mode="normal" in2="BackgroundImageFix" result="effect1_dropShadow_455_1483"/>
<feColorMatrix in="SourceAlpha" type="matrix" values="0 0 0 0 0 0 0 0 0 0 0 0 0 0 0 0 0 0 127 0" result="hardAlpha"/>
<feOffset dy="16"/>
<feGaussianBlur stdDeviation="12"/>
<feColorMatrix type="matrix" values="0 0 0 0 0.0627451 0 0 0 0 0.0980392 0 0 0 0 0.156863 0 0 0 0.08 0"/>
<feBlend mode="normal" in2="effect1_dropShadow_455_1483" result="effect2_dropShadow_455_1483"/>
<feBlend mode="normal" in="SourceGraphic" in2="effect2_dropShadow_455_1483" result="shape"/>
</filter>
</defs>
</svg>
