<svg width="78" height="43" viewBox="0 0 78 43" fill="none" xmlns="http://www.w3.org/2000/svg">
<g clip-path="url(#clip0_386_2024)">
<path d="M43.79 39.3545C43.7912 39.3554 43.7936 39.3578 43.7969 39.3604C43.8035 39.3655 43.8147 39.3739 43.8291 39.3848C43.8583 39.4067 43.9025 39.439 43.959 39.4775C44.0732 39.5554 44.2337 39.6566 44.4199 39.75C44.8159 39.9487 45.2261 40.0616 45.543 39.9854L45.8984 39.8857C46.6956 39.6286 47.2481 39.1931 47.3496 38.5156L47.3594 38.4004C47.3656 38.1213 47.261 37.7848 47.1094 37.4648C47.0277 37.2924 46.9417 37.1434 46.876 37.0381C46.8433 36.9858 46.8162 36.9449 46.7979 36.918C46.7887 36.9046 46.7816 36.8948 46.7773 36.8887C46.7752 36.8857 46.7732 36.8839 46.7725 36.8828V36.8818C46.7728 36.8816 46.7734 36.8798 46.7773 36.877L47.502 36.2246L47.5107 36.2158L47.5137 36.2188C47.5163 36.2211 47.5205 36.2253 47.5264 36.2305C47.5382 36.2408 47.557 36.256 47.5811 36.2764C47.6295 36.3174 47.7016 36.3769 47.792 36.4473C47.9736 36.5886 48.2259 36.7714 48.5117 36.9414C48.8 37.1128 49.108 37.2626 49.4014 37.3477C49.6981 37.4337 49.9393 37.4421 50.1221 37.3848L50.2744 37.333C50.6179 37.2063 50.8809 37.0383 51.0771 36.833C51.299 36.601 51.4594 36.2961 51.54 35.8848L51.5527 35.7783C51.5671 35.5143 51.474 35.1535 51.3262 34.7891C51.2478 34.5958 51.1639 34.4252 51.0996 34.3027C51.0677 34.2419 51.0408 34.1934 51.0225 34.1611C51.0133 34.1451 51.0064 34.1326 51.002 34.125C50.9998 34.1214 50.998 34.1188 50.9971 34.1172L50.9961 34.1152L51.7979 33.5391L51.8047 33.5332L51.8057 33.5342C51.8066 33.5353 51.8082 33.5373 51.8105 33.54C51.8157 33.546 51.8244 33.5557 51.8359 33.5684C51.8592 33.594 51.8956 33.6315 51.9414 33.6777C52.0337 33.7708 52.1648 33.8942 52.3203 34.0156C52.6118 34.2431 52.9184 34.4092 53.1846 34.4434L53.2959 34.4492C53.7502 34.4406 54.1085 34.3059 54.3828 34.0879C54.6594 33.8681 54.8781 33.541 55.0107 33.1045H55.0117L55.041 32.9502C55.0636 32.7678 55.065 32.5075 55.0498 32.2324C55.0405 32.0633 55.0264 31.9086 55.0146 31.7959C55.0132 31.7816 55.0112 31.7677 55.0098 31.7549L41.2188 14.9189C41.1703 14.9149 41.1138 14.9101 41.0508 14.9053C40.8161 14.8874 40.488 14.8658 40.1162 14.8516C39.3629 14.8227 38.4638 14.8254 37.79 14.9336L37.542 14.9775C36.9809 15.0904 36.536 15.261 36.0713 15.4541C35.5402 15.6748 34.9628 15.9353 34.1973 16.1367L33.6816 16.2637C33.1422 16.3893 32.5485 16.5082 32.0508 16.6025C31.7176 16.6657 31.424 16.719 31.2139 16.7559C31.1092 16.7742 31.025 16.7879 30.9668 16.7979C30.9378 16.8028 30.9148 16.807 30.8994 16.8096C30.8918 16.8108 30.8858 16.8118 30.8818 16.8125C30.8804 16.8127 30.8789 16.8123 30.8779 16.8125V16.8135C30.8761 16.8138 30.8734 16.8139 30.8701 16.8145C30.8633 16.8157 30.8528 16.8181 30.8398 16.8203C30.8139 16.8248 30.7761 16.8308 30.7275 16.8389C30.63 16.855 30.4888 16.8778 30.3135 16.9043C29.9628 16.9573 29.4728 17.025 28.918 17.0859C27.8196 17.2065 26.4231 17.304 25.3369 17.1816L24.9873 17.1318C24.1845 16.9958 23.4599 16.7179 22.7744 16.4062C21.957 16.0346 21.278 15.6591 20.4697 15.3262L19.9902 15.1221C14.9635 12.9171 7.80223 7.78519 3.78613 4.77051L2.50781 3.80176C2.12933 3.51261 1.80141 3.25957 1.53223 3.05078C1.52137 3.04236 1.51066 3.03366 1.5 3.02539V22.4619C1.6333 22.51 1.80485 22.5721 2.01074 22.6465C2.5482 22.8406 3.31959 23.1196 4.25586 23.458L11.752 26.1719C14.5509 27.1871 17.4317 28.2344 19.7393 29.0791L20.0029 29.1611C20.2587 29.226 20.4989 29.2471 20.7773 29.2744C21.1489 29.3109 21.5763 29.358 22.0742 29.5762L22.3809 29.7256C23.0604 30.0911 23.4886 30.5707 23.8604 31.0566C24.2905 31.6189 24.6112 32.1314 25.1777 32.6328L25.582 32.9795C27.6621 34.704 30.5873 36.3332 33.0791 37.5635C34.4018 38.2165 35.5919 38.7519 36.4512 39.124C36.8807 39.3101 37.2281 39.4553 37.4668 39.5537C37.5858 39.6028 37.678 39.6399 37.7402 39.665C37.7711 39.6775 37.7948 39.6871 37.8105 39.6934C37.8183 39.6965 37.8243 39.6996 37.8281 39.7012C37.83 39.7019 37.8321 39.7018 37.833 39.7021L37.834 39.7031L37.9072 39.7314L37.9688 39.7822H37.9678L37.9688 39.7832C37.9696 39.7839 37.9717 39.7846 37.9736 39.7861C37.9775 39.7893 37.9833 39.7944 37.9912 39.8008C38.0078 39.8142 38.0335 39.8345 38.0664 39.8604C38.1322 39.9121 38.229 39.9871 38.3496 40.0762C38.5915 40.2548 38.9272 40.4901 39.3047 40.7188C39.6843 40.9487 40.0955 41.1652 40.4883 41.3125C40.8898 41.463 41.225 41.523 41.4717 41.4922L41.7656 41.4492C42.414 41.3372 42.8062 41.1397 43.0361 40.7178L43.0762 40.6172C43.1065 40.5078 43.1084 40.3732 43.0869 40.2285C43.0736 40.139 43.053 40.0605 43.0361 40.0049C43.0278 39.9774 43.0212 39.9561 43.0166 39.9434C43.0145 39.9376 43.0125 39.9338 43.0117 39.9316H43.0127C43.0131 39.9315 43.0134 39.9302 43.0146 39.9297L43.79 39.3545ZM43.79 39.3545L43.7891 39.3535V39.3545H43.79Z" fill="#E7FFE8" stroke="#87D09B"/>
<path d="M51.4242 33.8571C51.4242 33.8571 52.3655 34.9672 53.3052 34.9494C54.4114 34.9284 55.1753 34.2844 55.4896 33.2503C55.6482 32.7289 55.4896 31.5513 55.4896 31.5513L41.4728 14.4395C41.4728 14.4395 39.1613 14.2065 37.7107 14.4395C36.231 14.6771 35.5194 15.2718 34.07 15.6531C32.8071 15.9852 30.7933 16.3205 30.7933 16.3205C30.7933 16.3205 27.4482 16.9162 25.3929 16.6846C23.656 16.4889 22.2762 15.5298 20.66 14.8642C15.688 12.8169 8.2418 7.48976 4.08608 4.37025M51.4242 33.8571C51.4242 33.8571 52.1968 35.1345 52.0309 35.981C51.8375 36.9681 51.2311 37.5612 50.2713 37.862C49.0241 38.253 47.1766 36.5878 47.1766 36.5878M51.4242 33.8571C51.4242 33.8571 49.9558 31.3379 49.0577 29.0027C48.7543 28.2139 49.0577 27.1216 49.0577 27.1216M4.08608 4.37025C2.20648 2.95932 1 2 1 2V22.8133C1 22.8133 2.21345 23.2512 4.08608 23.9281M4.08608 4.37025V23.9281M47.1766 36.5878C47.1766 36.5878 47.9793 37.6883 47.8441 38.5902C47.6795 39.6884 46.6861 40.2242 45.6597 40.4713C44.6687 40.7098 43.4752 39.7431 43.4752 39.7431M47.1766 36.5878C47.1766 36.5878 45.8417 34.4639 45.4776 32.8256C45.3946 32.4519 45.4776 31.5513 45.4776 31.5513M43.4752 39.7431C43.4752 39.7431 43.7587 40.4365 43.4752 40.9567C43.0877 41.6679 42.3855 41.8818 41.5335 41.9883C40.0772 42.1703 37.65 40.1679 37.65 40.1679C37.65 40.1679 29.1372 36.8039 24.8468 33.0076C23.617 31.9195 23.3776 30.6932 21.8735 30.0343C21.0307 29.665 20.4319 29.8652 19.5677 29.5488C14.9537 27.8597 8.04603 25.3595 4.08608 23.9281M43.4752 39.7431C43.4752 39.7431 42.6936 38.2028 42.5044 37.0732C42.383 36.3487 42.2616 35.1921 42.2616 35.1921M39.7131 33.0683C39.7131 33.0683 39.9872 32.1698 40.4413 31.8547C40.805 31.6023 41.5335 31.5513 41.5335 31.5513M43.4752 30.3984C43.4752 30.3984 43.8234 29.2331 44.4461 29.0027C44.8239 28.863 45.4776 29.0027 45.4776 29.0027M47.48 27.5464C47.48 27.5464 47.4132 26.5679 47.7834 26.1507C48.0648 25.8337 48.7543 25.6653 48.7543 25.6653" stroke="#87D09B"/>
<path d="M76.5312 20.0664C76.4071 20.1241 76.246 20.1993 76.0527 20.2891L74.083 21.2031C70.9949 22.6349 66.2021 24.8522 64.46 25.6318L63.9141 25.8711C63.281 26.1358 62.7839 26.2707 62.2236 26.4639C61.7416 26.6301 61.2584 26.8274 60.7217 27.1631L60.4873 27.3154C59.7665 27.8076 59.3814 28.4129 59.0439 28.9131C58.7463 29.3543 58.4809 29.725 58.0479 30.0234L57.8516 30.1465C57.4372 30.3839 56.8229 30.5831 56.2812 30.7256C56.0167 30.7952 55.7804 30.8489 55.6104 30.8848H55.6094C55.5638 30.8346 55.5112 30.7761 55.4521 30.7109C55.2374 30.4737 54.9404 30.1445 54.6113 29.7764C54.1162 29.2224 53.5522 28.5839 53.0869 28.0391L52.6611 27.5322C51.941 26.6568 51.5586 26.0425 51.1094 25.4072C50.7137 24.8477 50.288 24.3074 49.5879 23.6436L49.2705 23.3516C48.034 22.2436 46.7256 21.1799 45.4736 20.3447C44.3099 19.5685 43.1559 18.962 42.1328 18.7236L41.9297 18.6807C41.253 18.5538 40.7156 18.6352 40.21 18.7783C39.9673 18.847 39.7225 18.9327 39.4902 19.0107C39.3713 19.0507 39.2519 19.0906 39.1289 19.1279L38.7461 19.2324C37.7208 19.4823 36.8586 19.9269 36.1123 20.2354C35.4439 20.5116 34.8151 20.7076 34.0781 20.6953L33.7549 20.6777C32.3673 20.5434 31.6304 19.9029 31.2285 19.3223C31.0487 19.0623 30.9324 18.8072 30.8584 18.6035C31.1167 18.5257 31.463 18.4194 31.8506 18.291C32.5681 18.0534 33.4475 17.7373 34.1768 17.3984L34.4785 17.252C34.9853 16.9954 35.3503 16.7304 35.6826 16.498C35.9314 16.3241 36.1678 16.1642 36.4541 16.0146L36.7588 15.8682C37.5406 15.5259 38.1909 15.3925 38.874 15.3105C39.3631 15.2519 39.9472 15.2144 40.5879 15.1416L41.2461 15.0547C42.6009 14.8478 43.3395 14.6332 44.4766 14.585L44.9922 14.5752C46.7811 14.5794 48.1999 15.482 49.7705 16.3711C51.206 17.1837 52.7668 17.9763 54.6836 17.6191L55.0713 17.5322C55.9462 17.3028 56.4854 16.9668 56.9609 16.5947C57.3817 16.2655 57.6866 15.9707 58.1484 15.667L58.3564 15.5361C59.3838 14.9203 60.2181 14.5025 61.0674 14.0537C61.8097 13.6614 62.5521 13.251 63.4102 12.6787L63.7861 12.4229C66.4317 10.5825 69.6045 8.24069 72.2139 6.28418L74.5957 4.48828C75.3914 3.88502 76.0558 3.37751 76.5312 3.01367V20.0664Z" fill="#E7FFE8" stroke="#87D09B"/>
<path d="M74.2933 4.08993C75.945 2.8377 77.0315 2 77.0315 2V20.3861C77.0315 20.3861 75.8951 20.9143 74.2933 21.657M74.2933 4.08993C71.4774 6.22479 67.0187 9.56448 63.5001 12.0122C61.5047 13.4004 60.1845 13.8572 58.0997 15.1069C56.8587 15.8508 56.5341 16.6319 54.9444 17.0487C51.1744 18.0372 48.8904 14.0844 44.993 14.0754C43.4881 14.0719 42.6579 14.3337 41.1702 14.5608C39.36 14.8372 38.2362 14.676 36.5587 15.4103C35.5944 15.8324 35.192 16.3306 34.2529 16.806C32.7681 17.5576 30.248 18.2623 30.248 18.2623C30.248 18.2623 30.6121 20.8755 33.7068 21.175C35.706 21.3684 36.9131 20.1941 38.8644 19.7186C40.0114 19.4392 40.6774 18.9549 41.8377 19.1725C43.7794 19.5366 46.4845 21.5258 48.9371 23.7235C50.6622 25.2692 50.803 26.061 52.2745 27.8498C53.3044 29.1017 55.4298 31.4299 55.4298 31.4299C55.4298 31.4299 57.1503 31.1243 58.0997 30.5804C59.4234 29.822 59.5095 28.5886 60.7695 27.7284C61.9363 26.9319 62.8035 26.8778 64.1069 26.3328C65.0026 25.9582 70.7724 23.2894 74.2933 21.657M74.2933 4.08993V21.657" stroke="#87D09B"/>
<path d="M32.3717 18.9926C31.5194 18.9325 30.3086 18.325 30.3086 18.325L33.5853 17.1723C33.5853 17.1723 34.3397 16.8647 34.7988 17.1115C35.1543 17.3026 35.4663 17.9004 35.4663 17.9004C35.4663 17.9004 33.6501 19.0829 32.3717 18.9926Z" fill="white" stroke="#87D09B"/>
<path d="M55.9763 20.75C55.9763 20.75 56.7966 22.1309 56.6437 23.0559C56.4495 24.2307 54.5807 25.301 54.5807 25.301M54.5807 25.301L50.2725 25.5437M54.5807 25.301C54.5807 25.301 55.8381 25.301 56.6437 25.301C57.1899 25.301 58.3428 25.7865 58.3428 25.7865" stroke="#87D09B"/>
<path d="M27.0703 35.251L27.1914 35.3271H29.8447L29.9219 35.3008L29.9258 35.2998C29.9291 35.2987 29.9342 35.2963 29.9414 35.2939C29.9563 35.2892 29.9796 35.2826 30.0098 35.2734C30.0701 35.2552 30.1592 35.229 30.2695 35.2002C30.4913 35.1423 30.7954 35.0739 31.1279 35.0283C31.463 34.9824 31.8128 34.9616 32.1289 34.9932C32.3689 35.0172 32.568 35.0691 32.7236 35.1455L32.8643 35.2305C33.0809 35.3894 33.3113 35.7147 33.502 36.0586C33.592 36.221 33.6648 36.372 33.7148 36.4814C33.7396 36.5357 33.758 36.5799 33.7705 36.6094C33.7767 36.6239 33.7822 36.6345 33.7852 36.6416C33.7866 36.6451 33.7875 36.648 33.7881 36.6494V36.6504L33.9639 37.0918L34.4141 36.9385H34.4131V36.9375H34.416C34.4184 36.9367 34.4224 36.9353 34.4277 36.9336C34.4392 36.9299 34.4577 36.9243 34.4814 36.917C34.5289 36.9025 34.5992 36.8824 34.6865 36.8594C34.8626 36.8129 35.1036 36.7571 35.3662 36.7207C35.631 36.684 35.9029 36.6689 36.1455 36.6934C36.3304 36.7121 36.4766 36.7521 36.5859 36.8066L36.6836 36.8652C36.9481 37.0631 37.119 37.2502 37.2266 37.4443C37.3055 37.5868 37.3595 37.7499 37.3818 37.9512L37.3936 38.165C37.3939 38.3499 37.286 38.6315 37.124 38.9209C37.0496 39.0538 36.9746 39.1702 36.918 39.2529C36.8899 39.294 36.8662 39.3263 36.8506 39.3477C36.8428 39.3583 36.8367 39.3662 36.833 39.3711C36.8315 39.3732 36.8308 39.375 36.8301 39.376L36.8115 39.3975C36.7949 39.4175 36.7697 39.4476 36.7373 39.4844C36.6721 39.5584 36.5796 39.6587 36.4707 39.7637C36.2652 39.9617 36.0494 40.1291 35.873 40.208L35.7998 40.2363C35.0034 40.4905 34.2137 40.1151 33.6982 39.3047L33.5986 39.1367C33.5369 39.0247 33.4733 38.8423 33.4219 38.6621C33.3977 38.5774 33.3783 38.5017 33.3652 38.4473C33.3587 38.4201 33.3538 38.3981 33.3506 38.3838C33.349 38.3768 33.3474 38.3714 33.3467 38.3682V38.3643L33.2559 37.9365L32.8203 37.9688H32.8174C32.8152 37.9689 32.8114 37.9694 32.8066 37.9697C32.7967 37.9704 32.7816 37.9716 32.7617 37.9727C32.721 37.9748 32.6603 37.9774 32.585 37.9795C32.4335 37.9837 32.2229 37.9855 31.9883 37.9746C31.5598 37.9546 31.1095 37.8955 30.7822 37.7725L30.6504 37.7148C30.2914 37.5388 29.8937 37.1323 29.5615 36.7119C29.4026 36.5108 29.271 36.3218 29.1787 36.1836C29.1327 36.1148 29.0962 36.0595 29.0723 36.0215C29.0604 36.0026 29.0516 35.9879 29.0459 35.9785C29.043 35.9738 29.0413 35.9698 29.04 35.9678L29.0391 35.9658L28.8652 35.6758L28.5312 35.7285H28.5293C28.5275 35.7288 28.5246 35.7299 28.5205 35.7305C28.5118 35.7317 28.4978 35.7339 28.4795 35.7363C28.4428 35.7411 28.3883 35.7473 28.3203 35.7539C28.183 35.7673 27.9938 35.7808 27.7861 35.7803C27.3946 35.7793 27.0298 35.7288 26.7949 35.6162L26.7031 35.5645C26.5855 35.4859 26.4636 35.3434 26.3486 35.1338C26.2716 34.9933 26.2054 34.8357 26.1484 34.6738L27.0703 35.251Z" fill="white" stroke="#87D09B"/>
<path d="M28.6095 36.2225C28.6095 36.2225 27.1389 36.4565 26.4251 35.9798C25.5867 35.4199 25.3936 33.6133 25.3936 33.6133L27.3353 34.8269H29.7624M28.6095 36.2225L29.7624 34.8269M28.6095 36.2225C28.6095 36.2225 29.4966 37.7068 30.4299 38.1643C31.2876 38.5848 32.8571 38.4677 32.8571 38.4677M29.7624 34.8269C29.7624 34.8269 32.0905 34.0419 33.1605 34.8269C33.7805 35.2817 34.2527 36.4653 34.2527 36.4653M32.8571 38.4677C32.8571 38.4677 32.9797 39.0497 33.1605 39.3779C33.7432 40.4364 34.8006 41.0802 35.9517 40.7129C36.5616 40.5182 37.2259 39.6813 37.2259 39.6813C37.2259 39.6813 37.8947 38.8115 37.8934 38.1643C37.8919 37.4116 37.5859 36.9162 36.9832 36.4653C36.1294 35.8264 34.2527 36.4653 34.2527 36.4653M32.8571 38.4677C33.0998 38.4677 33.8886 37.1327 34.2527 36.4653" stroke="#87D09B"/>
<path d="M33.8888 38.53C34.1317 38.0445 34.3894 37.5591 34.617 37.2557C35.0332 36.7007 35.9475 36.5028 36.5587 36.831C37.1285 37.1371 37.2869 38.1659 36.9834 38.7121C36.5023 39.5782 36.3778 39.6819 36.0174 39.9823L36.0126 39.9863C35.7214 40.229 35.0746 40.0807 34.617 39.8043C34.1417 39.5172 33.7371 38.8334 33.8888 38.53Z" fill="#E7FFE8" stroke="#87D09B"/>
<path d="M29.8232 36.5275C30.066 36.042 30.2631 35.7384 30.4907 35.435C30.9069 34.88 31.9427 34.9625 32.5538 35.2907C33.1236 35.5968 33.5246 36.3453 33.2212 36.8915C32.7379 37.7615 32.7358 37.741 32.3717 38.0445C32.0805 38.2872 31.1627 38.1158 30.7051 37.8393C30.2299 37.5523 29.6715 36.8309 29.8232 36.5275Z" fill="#E7FFE8" stroke="#87D09B"/>
<path d="M28.1244 35.1924C27.6139 34.9888 26.6074 35.0711 26.6074 35.0711C26.6074 35.0711 26.8054 35.7354 27.1535 35.9207C27.4882 36.0988 28.6847 36.2142 28.5491 35.6778C28.4874 35.4336 28.4302 35.3144 28.1244 35.1924Z" fill="white" stroke="#87D09B"/>
</g>
<defs>
<clipPath id="clip0_386_2024">
<rect width="78" height="43" fill="white"/>
</clipPath>
</defs>
</svg>
