<svg width="53" height="89" viewBox="0 0 53 89" fill="none" xmlns="http://www.w3.org/2000/svg">
<path d="M52.4947 11.6225C53.053 11.0006 53.0015 10.0439 52.3797 9.48556L42.2461 0.387046C41.6243 -0.171284 40.6676 -0.119796 40.1092 0.502049C39.5509 1.12389 39.6024 2.08061 40.2242 2.63894L49.2318 10.7265L41.1443 19.7341C40.5859 20.356 40.6374 21.3127 41.2593 21.871C41.8811 22.4293 42.8378 22.3778 43.3962 21.756L52.4947 11.6225ZM32.6449 88.1426C33.479 88.0901 34.1126 87.3715 34.0602 86.5374L33.2056 72.9454C33.1531 72.1114 32.4344 71.4777 31.6004 71.5302C30.7663 71.5826 30.1327 72.3013 30.1851 73.1353L30.9448 85.2171L18.863 85.9767C18.029 86.0292 17.3953 86.7478 17.4478 87.5819C17.5002 88.416 18.2189 89.0496 19.0529 88.9972L32.6449 88.1426ZM51.3687 10.6115L51.2874 9.1005C42.9375 9.54987 33.4871 11.006 25.0052 13.8514C16.5555 16.686 8.87731 20.9632 4.31089 27.1847C-0.336122 33.516 -1.60357 41.6455 2.38259 51.7025C6.33159 61.6658 15.4409 73.5649 31.5492 87.7674L32.55 86.6323L33.5507 85.4973C17.5873 71.4226 8.88814 59.9025 5.19605 50.5874C1.54113 41.366 2.79996 34.358 6.75065 28.9754C10.7819 23.483 17.7729 19.4698 25.9678 16.7207C34.1305 13.9823 43.3002 12.5611 51.45 12.1225L51.3687 10.6115Z" fill="#FCC660"/>
</svg>
