<svg width="26" height="26" viewBox="0 0 26 26" fill="none" xmlns="http://www.w3.org/2000/svg">
<path d="M15.6664 10.3318L11.6661 14.3321M24.051 1.0391C24.1775 0.995436 24.3138 0.98825 24.4442 1.01836C24.5746 1.04848 24.6939 1.11468 24.7885 1.20939C24.8831 1.30411 24.9491 1.42352 24.979 1.55399C25.009 1.68445 25.0016 1.8207 24.9577 1.94717L17.0585 24.5222C17.0112 24.6571 16.9245 24.7748 16.8095 24.8598C16.6946 24.9449 16.5567 24.9934 16.4139 24.9992C16.271 25.0049 16.1297 24.9676 16.0083 24.8921C15.8869 24.8165 15.791 24.7062 15.733 24.5755L11.4407 14.9188C11.3685 14.7582 11.2399 14.6297 11.0793 14.5574L1.42262 10.2638C1.29234 10.2056 1.18249 10.1097 1.10727 9.98849C1.03205 9.86725 0.994911 9.72623 1.00065 9.58367C1.0064 9.44111 1.05476 9.30354 1.13948 9.18874C1.22421 9.07395 1.34142 8.9872 1.47596 8.93969L24.051 1.0391Z" stroke="white" stroke-width="2" stroke-linecap="round" stroke-linejoin="round"/>
</svg>
