<?xml version="1.0" encoding="utf-8"?>
<svg width="32" height="32" viewBox="0 0 32 32" fill="none" xmlns="http://www.w3.org/2000/svg">
    <path d="M16 0C7.164 0 0 7.164 0 16C0 24.836 7.164 32 16 32C24.836 32 32 24.836 32 16C32 7.164 24.836 0 16 0Z" fill="#0052FF"/>
    <path d="M16.498 24.0871C20.6971 24.0871 24.0871 20.6971 24.0871 16.498C24.0871 12.2989 20.6971 8.90894 16.498 8.90894C12.2989 8.90894 8.90894 12.2989 8.90894 16.498C8.90894 20.6971 12.2989 24.0871 16.498 24.0871Z" fill="white"/>
    <path d="M13.8018 16.498C13.8018 14.9893 15.0331 13.758 16.5418 13.758C18.0505 13.758 19.2818 14.9893 19.2818 16.498C19.2818 18.0067 18.0505 19.238 16.5418 19.238C15.0331 19.238 13.8018 18.0067 13.8018 16.498Z" fill="#0052FF"/>
</svg>
