<svg version="1.1" id="Layer_1" xmlns="http://www.w3.org/2000/svg" xmlns:xlink="http://www.w3.org/1999/xlink" x="0px" y="0px"
	 width="100%" viewBox="0 0 442 442" enable-background="new 0 0 442 442" xml:space="preserve">
<path fill="#04B3C8" opacity="1.000000" stroke="none" 
	d="
M411.169373,255.156601 
	C389.036102,272.119568 364.487091,274.153351 338.723419,268.073608 
	C308.704895,260.989716 283.394958,244.781143 259.504395,226.028824 
	C255.583359,222.951080 251.765060,219.742462 247.774490,216.492737 
	C239.090057,223.045166 230.668579,229.779633 221.862839,235.967255 
	C200.873550,250.716019 178.523514,262.583618 153.215668,268.364319 
	C118.812294,276.222656 86.342033,264.373810 68.565269,236.939240 
	C66.433495,233.649292 64.728638,230.082718 62.068657,225.275986 
	C64.310699,226.233215 65.504463,226.360565 66.021088,227.019089 
	C80.835999,245.904236 101.088104,249.353958 123.133804,246.603439 
	C147.612228,243.549423 169.311798,232.914001 189.870880,219.960510 
	C200.980972,212.960449 211.473984,204.980164 222.224030,197.411758 
	C222.872818,196.954971 223.332245,196.229233 224.406342,195.051071 
	C215.801605,188.685898 207.568298,182.214386 198.953308,176.298767 
	C178.398285,162.184387 156.814941,150.080078 132.230957,144.365082 
	C120.457184,141.628052 108.589081,140.549271 96.567696,142.927094 
	C86.152985,144.987076 77.013519,149.358398 69.584381,157.068970 
	C68.664497,158.023697 67.641602,158.883362 66.623672,159.736023 
	C66.411484,159.913773 66.009987,159.865509 64.903877,160.062210 
	C65.412239,158.624557 65.594772,157.435974 66.192101,156.516998 
	C83.052437,130.577881 107.415245,119.691742 137.734863,121.702003 
	C164.226059,123.458435 187.632660,134.249893 209.465424,148.499420 
	C222.264130,156.852707 234.333755,166.323090 247.192627,175.624634 
	C253.904678,170.481735 261.001740,164.764404 268.382507,159.440399 
	C291.526642,142.745743 316.016083,128.617676 344.567841,123.632195 
	C375.964996,118.149872 403.151245,125.598495 423.186005,151.931381 
	C426.669281,156.509628 429.034119,161.938797 431.915558,166.974945 
	C431.419891,167.263351 430.924225,167.551758 430.428528,167.840179 
	C427.436462,164.599930 424.720764,161.039551 421.403564,158.175888 
	C408.343109,146.901062 392.774048,143.990799 376.086487,145.250778 
	C360.078949,146.459396 345.133972,151.551880 330.703278,158.194000 
	C308.959900,168.201996 289.262390,181.487885 269.901703,196.744659 
	C272.158844,198.672989 274.040863,200.408188 276.051361,201.978943 
	C298.195038,219.279358 321.443573,234.763916 348.207947,244.067825 
	C364.883911,249.864761 381.903046,253.378021 399.671356,249.159866 
	C409.313385,246.870880 417.808319,242.684128 424.681885,235.430603 
	C425.531097,234.534439 426.526031,233.776367 427.995819,233.416565 
	C424.835632,242.399185 418.649414,249.051285 411.454834,254.945618 
	C381.903046,253.378021 364.883911,249.864761 348.207947,244.067825 
	C321.443573,234.763916 298.195038,219.279358 276.051361,201.978943 
	C274.040863,200.408188 272.158844,198.672989 269.901703,196.744659 
	C289.262390,181.487885 308.959900,168.201996 330.703278,158.194000 
	C345.133972,151.551880 360.078949,146.459396 376.086487,145.250778 
	C392.774048,143.990799 408.343109,146.901062 421.403564,158.175888 
	C424.720764,161.039551 427.436462,164.599930 430.428528,167.840179 
	C430.924225,167.551758 431.419891,167.263351 431.915558,166.974945 
	C429.034119,161.938797 426.669281,156.509628 423.186005,151.931381 
	C403.151245,125.598495 375.964996,118.149872 344.567841,123.632195 
	C316.016083,128.617676 291.526642,142.745743 268.382507,159.440399 
	C261.001740,164.764404 253.904678,170.481735 247.192627,175.624634 
	C234.333755,166.323090 222.264130,156.852707 209.465424,148.499420 
	C187.632660,134.249893 164.226059,123.458435 137.734863,121.702003 
	C107.415245,119.691742 83.052437,130.577881 66.192101,156.516998 
	C65.594772,157.435974 65.412239,158.624557 64.903877,160.062210 
	C66.009987,159.865509 66.411484,159.913773 66.623672,159.736023 
	C67.641602,158.883362 68.664497,158.023697 69.584381,157.068970 
	C77.013519,149.358398 86.152985,144.987076 96.567696,142.927094 
	C108.589081,140.549271 120.457184,141.628052 132.230957,144.365082 
	C156.814941,150.080078 178.398285,162.184387 198.953308,176.298767 
	C207.568298,182.214386 215.801605,188.685898 224.406342,195.051071 
	C223.332245,196.229233 222.872818,196.954971 222.224030,197.411758 
	C211.473984,204.980164 200.980972,212.960449 189.870880,219.960510 
	C169.311798,232.914001 147.612228,243.549423 123.133804,246.603439 
	C101.088104,249.353958 80.835999,245.904236 66.021088,227.019089 
	C65.504463,226.360565 64.310699,226.233215 62.068657,225.275986 
	C64.728638,230.082718 66.433495,233.649292 68.565269,236.939240 
	C86.342033,264.373810 118.812294,276.222656 153.215668,268.364319 
	C178.523514,262.583618 200.873550,250.716019 221.862839,235.967255 
	C230.668579,229.779633 239.090057,223.045166 247.774490,216.492737 
	C251.765060,219.742462 255.583359,222.951080 259.504395,226.028824 
	C283.394958,244.781143 308.704895,260.989716 338.723419,268.073608 
	C364.487091,274.153351 389.036102,272.119568 411.454834,254.945618 



M433.326660,212.779572 
	C443.225403,183.538757 428.375885,165.546463 403.525452,158.142593 
	C392.037048,154.719788 380.229218,154.580719 368.396118,156.072647 
	C353.918854,157.897964 339.992859,161.716812 326.632111,167.676483 
	C330.481232,167.928436 334.251495,167.786697 338.017303,167.567856 
	C350.380341,166.849335 362.350433,168.065887 372.985535,175.141922 
	C382.474915,181.455612 388.536499,189.970108 387.281860,201.827972 
	C386.091492,213.078690 378.560608,219.703873 368.795563,224.163498 
	C356.469055,229.792877 343.596649,229.506790 330.582245,227.636093 
	C329.151459,227.430435 327.710144,227.298096 326.273712,227.131744 
	C330.928131,229.748749 335.662781,231.760574 340.519135,233.415161 
	C358.839539,239.657028 377.550476,243.504349 396.919250,239.934357 
	C413.030396,236.964813 426.522461,229.852356 433.326660,212.779572 
M142.826035,155.778061 
	C140.081528,155.087906 137.363693,154.257324 134.588211,153.730362 
	C116.459274,150.288376 98.706871,149.865753 81.229042,157.692108 
	C56.210171,168.895233 48.112865,209.231400 72.892082,225.538651 
	C79.032280,229.579498 86.074455,232.968002 93.178795,234.694794 
	C117.287872,240.554764 140.410461,234.923492 163.132706,226.931488 
	C163.699097,226.732269 164.046738,225.911118 164.702652,225.136459 
	C160.867767,225.136459 157.537491,225.010666 154.219681,225.160614 
	C145.113327,225.572159 136.266296,224.470322 127.806267,220.937744 
	C114.562241,215.407547 106.529037,204.323044 106.856400,192.083832 
	C107.142967,181.369858 115.518013,171.771408 128.870010,167.016876 
	C139.286911,163.307541 149.932068,162.698395 160.770523,164.877182 
	C161.503555,165.024536 162.387619,164.420517 163.201447,164.165970 
	C163.297226,163.649567 163.393021,163.133148 163.488815,162.616745 
	C156.862808,160.401993 150.236786,158.187241 142.826035,155.778061 
M869.186462,255.165375 
	C873.068359,255.606262 872.385010,252.819229 872.387024,250.582123 
	C872.401123,234.754333 872.072327,218.916702 872.555969,203.103699 
	C872.745300,196.911194 873.836853,190.412430 876.120728,184.693314 
	C879.881409,175.275833 887.715454,170.386383 897.893677,169.650620 
	C907.392883,168.963974 916.422729,170.524628 920.942017,179.921860 
	C923.443604,185.123520 924.669922,191.365540 924.833252,197.184570 
	C925.324036,214.664658 925.010254,232.167358 925.010315,249.661224 
	C925.010315,251.410583 925.010315,253.159927 925.010315,254.732895 
	C932.046692,254.732895 938.269470,254.732895 944.769165,254.732895 
	C944.769165,233.992310 944.772583,213.685394 944.762146,193.378479 
	C944.761414,191.881973 944.728271,190.379486 944.595520,188.889999 
	C943.678528,178.597778 941.563416,168.769958 933.734375,161.179581 
	C919.119324,147.010208 890.845520,148.257629 876.711304,163.704987 
	C875.555298,164.968384 874.416931,166.247925 872.543579,168.326294 
	C871.912048,163.928925 871.658752,160.638535 870.875244,157.479660 
	C870.572449,156.259079 869.122009,154.488998 868.100037,154.422607 
	C863.175964,154.102661 858.219788,154.278625 853.167480,154.278625 
	C853.167480,188.160400 853.167480,221.410812 853.167480,255.167358 
	C858.349609,255.167358 863.301208,255.167358 869.186462,255.165375 
M640.602844,199.975388 
	C636.523193,210.428024 632.443604,220.880661 628.033020,232.181305 
	C627.143677,230.134384 626.532837,228.868866 626.034363,227.560532 
	C617.148621,204.235458 608.311951,180.891495 599.312073,157.610596 
	C598.782043,156.239304 597.012024,154.486282 595.732788,154.412842 
	C589.802307,154.072342 583.841309,154.262299 577.260376,154.262299 
	C578.049316,156.410217 578.564392,157.936707 579.164795,159.428848 
	C590.161804,186.756836 601.226990,214.057587 612.149475,241.415283 
	C617.638306,255.163147 617.526489,255.016068 632.246948,255.294983 
	C636.363098,255.372955 638.030457,253.850983 639.478699,250.324753 
	C649.595520,225.692749 659.907715,201.141006 670.145081,176.558441 
	C673.125732,169.401093 676.066528,162.227127 679.357117,154.257965 
	C673.450439,154.257965 668.329468,154.520737 663.251343,154.167526 
	C659.743042,153.923508 658.250183,155.367798 657.072510,158.410110 
	C651.785034,172.069534 646.308838,185.655914 640.602844,199.975388 
M783.932434,149.500000 
	C783.932434,134.243820 783.932434,118.987640 783.932434,103.589409 
	C777.037598,103.589409 770.810059,103.589409 764.522034,103.589409 
	C764.522034,154.248611 764.522034,204.571762 764.522034,254.763290 
	C771.183105,254.763290 777.411255,254.763290 783.932373,254.763290 
	C783.932373,219.736069 783.932373,185.118027 783.932434,149.500000 
M714.911987,162.474777 
	C713.746887,163.965103 712.581787,165.455444 710.668030,167.903412 
	C710.348206,163.751694 710.349792,160.750122 709.785522,157.859024 
	C709.543030,156.616791 708.180298,154.694077 707.233643,154.637573 
	C701.966370,154.323166 696.670593,154.486664 691.389404,154.486664 
	C691.389404,188.357056 691.389404,221.599930 691.389404,254.829758 
	C697.962708,254.829758 704.201416,254.829758 710.851624,254.829758 
	C710.851624,252.697403 710.851562,250.897842 710.851624,249.098282 
	C710.852173,233.102158 710.748840,217.105164 710.880249,201.110123 
	C711.033081,182.513550 722.048523,171.635498 740.584778,171.515717 
	C743.340637,171.497910 746.096802,171.513260 748.805908,171.513260 
	C748.805908,165.002487 748.805908,159.254364 748.805908,153.389450 
	C736.021729,150.811829 724.619568,152.103317 714.911987,162.474777 
M828.255432,228.500031 
	C828.255432,203.936218 828.255432,179.372406 828.255432,154.684937 
	C821.453918,154.684937 815.268677,154.684937 809.046509,154.684937 
	C809.046509,188.291550 809.046509,221.480148 809.046509,254.779587 
	C815.554504,254.779587 821.755188,254.779587 828.255554,254.779587 
	C828.255554,246.099411 828.255554,237.799713 828.255432,228.500031 
M805.240417,117.593704 
	C805.389709,118.742973 805.409241,119.927353 805.709290,121.035797 
	C807.641541,128.174377 815.318787,132.423553 822.057251,130.136932 
	C829.667847,127.554382 833.190063,119.807381 830.062561,112.529633 
	C827.804626,107.275482 822.804626,104.422119 816.781494,104.950378 
	C810.795349,105.475395 806.790283,109.603905 805.240417,117.593704 
z"/>
<path fill="#04B3C8" opacity="1.000000" stroke="none" 
	d="
M411.169373,255.156601 
	C389.036102,272.119568 364.487091,274.153351 338.723419,268.073608 
	C308.704895,260.989716 283.394958,244.781143 259.504395,226.028824 
	C255.583359,222.951080 251.765060,219.742462 247.774490,216.492737 
	C239.090057,223.045166 230.668579,229.779633 221.862839,235.967255 
	C200.873550,250.716019 178.523514,262.583618 153.215668,268.364319 
	C118.812294,276.222656 86.342033,264.373810 68.565269,236.939240 
	C66.433495,233.649292 64.728638,230.082718 62.068657,225.275986 
	C64.310699,226.233215 65.504463,226.360565 66.021088,227.019089 
	C80.835999,245.904236 101.088104,249.353958 123.133804,246.603439 
	C147.612228,243.549423 169.311798,232.914001 189.870880,219.960510 
	C200.980972,212.960449 211.473984,204.980164 222.224030,197.411758 
	C222.872818,196.954971 223.332245,196.229233 224.406342,195.051071 
	C215.801605,188.685898 207.568298,182.214386 198.953308,176.298767 
	C178.398285,162.184387 156.814941,150.080078 132.230957,144.365082 
	C120.457184,141.628052 108.589081,140.549271 96.567696,142.927094 
	C86.152985,144.987076 77.013519,149.358398 69.584381,157.068970 
	C68.664497,158.023697 67.641602,158.883362 66.623672,159.736023 
	C66.411484,159.913773 66.009987,159.865509 64.903877,160.062210 
	C65.412239,158.624557 65.594772,157.435974 66.192101,156.516998 
	C83.052437,130.577881 107.415245,119.691742 137.734863,121.702003 
	C164.226059,123.458435 187.632660,134.249893 209.465424,148.499420 
	C222.264130,156.852707 234.333755,166.323090 247.192627,175.624634 
	C253.904678,170.481735 261.001740,164.764404 268.382507,159.440399 
	C291.526642,142.745743 316.016083,128.617676 344.567841,123.632195 
	C375.964996,118.149872 403.151245,125.598495 423.186005,151.931381 
	C426.669281,156.509628 429.034119,161.938797 431.915558,166.974945 
	C431.419891,167.263351 430.924225,167.551758 430.428528,167.840179 
	C427.436462,164.599930 424.720764,161.039551 421.403564,158.175888 
	C408.343109,146.901062 392.774048,143.990799 376.086487,145.250778 
	C360.078949,146.459396 345.133972,151.551880 330.703278,158.194000 
	C308.959900,168.201996 289.262390,181.487885 269.901703,196.744659 
	C272.158844,198.672989 274.040863,200.408188 276.051361,201.978943 
	C298.195038,219.279358 321.443573,234.763916 348.207947,244.067825 
	C364.883911,249.864761 381.903046,253.378021 399.671356,249.159866 
	C409.313385,246.870880 417.808319,242.684128 424.681885,235.430603 
	C425.531097,234.534439 426.526031,233.776367 427.995819,233.416565 
	C424.835632,242.399185 418.649414,249.051285 411.169373,255.156601 
z"/>
<path fill="#06B4C8" opacity="1.000000" stroke="none" 
	d="
M1003.736816,184.723602 
	C1012.312744,175.623489 1020.705872,166.835938 1028.940430,157.902191 
	C1031.368408,155.268127 1033.909424,153.973999 1037.621948,154.170502 
	C1043.718750,154.493225 1049.844971,154.257935 1057.265625,154.257935 
	C1050.688232,161.175781 1044.945068,167.246368 1039.167603,173.284042 
	C1033.412354,179.298508 1027.767212,185.429871 1021.782776,191.208481 
	C1019.054077,193.843262 1019.158447,195.766190 1021.117615,198.802948 
	C1032.217041,216.007462 1043.110352,233.345062 1054.052734,250.650635 
	C1054.819824,251.863892 1055.418091,253.183929 1056.469727,255.157822 
	C1049.175903,255.157822 1042.571533,255.377853 1036.003418,254.987488 
	C1034.545532,254.900833 1032.856567,252.891998 1031.883423,251.376740 
	C1023.430176,238.214584 1015.118347,224.961609 1006.753174,211.742798 
	C1006.326416,211.068420 1005.795715,210.459763 1004.805725,209.147614 
	C999.341003,214.886597 994.017761,220.281662 988.987793,225.937500 
	C988.070312,226.969162 988.128784,229.062134 988.112305,230.669052 
	C988.030701,238.624878 988.075134,246.582001 988.075134,254.852234 
	C981.396057,254.852234 975.149597,254.852234 968.562378,254.852234 
	C968.562378,204.581451 968.562378,154.351654 968.562378,103.689880 
	C974.825684,103.689880 981.181946,103.689880 988.075073,103.689880 
	C988.075073,119.764084 988.075073,135.707306 988.075073,151.650528 
	C988.075073,167.602585 988.075073,183.554642 988.075073,201.207230 
	C993.875732,195.102371 998.684570,190.041336 1003.736816,184.723602 
z"/>
<path fill="#06B4C8" opacity="1.000000" stroke="none" 
	d="
M504.772217,231.120483 
	C514.679871,244.257690 538.483093,243.804947 548.330200,235.925278 
	C551.337830,233.518539 553.226379,229.753235 555.853271,226.811813 
	C556.971741,225.559387 558.615723,224.101593 560.115173,223.988586 
	C564.897278,223.628204 569.723633,223.854980 575.138794,223.854980 
	C572.526367,235.956711 566.481323,245.151321 556.215820,251.042068 
	C536.906921,262.122253 505.539398,260.829193 488.978882,239.812775 
	C471.109131,217.134796 473.200775,167.035233 510.133972,154.306717 
	C537.270447,144.954483 572.186768,156.692078 574.894958,196.786148 
	C575.150330,200.566803 574.929077,204.379639 574.929077,208.812592 
	C548.873230,208.812592 523.145569,208.812592 497.244171,208.812592 
	C497.713654,217.273697 499.798920,224.496017 504.772217,231.120483 
M531.500000,195.669495 
	C539.273743,195.669495 547.047485,195.669495 554.726135,195.669495 
	C556.547607,180.850388 545.129944,168.832214 529.322205,167.972580 
	C510.782684,166.964432 498.712708,179.774307 498.217224,195.669128 
	C508.982971,195.669128 519.741455,195.669128 531.500000,195.669495 
z"/>
<path fill="#04B3C8" opacity="1.000000" stroke="none" 
	d="
M433.185944,213.142181 
	C426.522461,229.852356 413.030396,236.964813 396.919250,239.934357 
	C377.550476,243.504349 358.839539,239.657028 340.519135,233.415161 
	C335.662781,231.760574 330.928131,229.748749 326.273712,227.131744 
	C327.710144,227.298096 329.151459,227.430435 330.582245,227.636093 
	C343.596649,229.506790 356.469055,229.792877 368.795563,224.163498 
	C378.560608,219.703873 386.091492,213.078690 387.281860,201.827972 
	C388.536499,189.970108 382.474915,181.455612 372.985535,175.141922 
	C362.350433,168.065887 350.380341,166.849335 338.017303,167.567856 
	C334.251495,167.786697 330.481232,167.928436 326.632111,167.676483 
	C339.992859,161.716812 353.918854,157.897964 368.396118,156.072647 
	C380.229218,154.580719 392.037048,154.719788 403.525452,158.142593 
	C428.375885,165.546463 443.225403,183.538757 433.185944,213.142181 
z"/>
<path fill="#04B3C8" opacity="1.000000" stroke="none" 
	d="
M143.218414,155.875275 
	C150.236786,158.187241 156.862808,160.401993 163.488815,162.616745 
	C163.393021,163.133148 163.297226,163.649567 163.201447,164.165970 
	C162.387619,164.420517 161.503555,165.024536 160.770523,164.877182 
	C149.932068,162.698395 139.286911,163.307541 128.870010,167.016876 
	C115.518013,171.771408 107.142967,181.369858 106.856400,192.083832 
	C106.529037,204.323044 114.562241,215.407547 127.806267,220.937744 
	C136.266296,224.470322 145.113327,225.572159 154.219681,225.160614 
	C157.537491,225.010666 160.867767,225.136459 164.702652,225.136459 
	C164.046738,225.911118 163.699097,226.732269 163.132706,226.931488 
	C140.410461,234.923492 117.287872,240.554764 93.178795,234.694794 
	C86.074455,232.968002 79.032280,229.579498 72.892082,225.538651 
	C48.112865,209.231400 56.210171,168.895233 81.229042,157.692108 
	C98.706871,149.865753 116.459274,150.288376 134.588211,153.730362 
	C137.363693,154.257324 140.081528,155.087906 143.218414,155.875275 
z"/>
<path fill="#05B3C8" opacity="1.000000" stroke="none" 
	d="
M868.719604,255.166367 
	C863.301208,255.167358 858.349609,255.167358 853.167480,255.167358 
	C853.167480,221.410812 853.167480,188.160400 853.167480,154.278625 
	C858.219788,154.278625 863.175964,154.102661 868.100037,154.422607 
	C869.122009,154.488998 870.572449,156.259079 870.875244,157.479660 
	C871.658752,160.638535 871.912048,163.928925 872.543579,168.326294 
	C874.416931,166.247925 875.555298,164.968384 876.711304,163.704987 
	C890.845520,148.257629 919.119324,147.010208 933.734375,161.179581 
	C941.563416,168.769958 943.678528,178.597778 944.595520,188.889999 
	C944.728271,190.379486 944.761414,191.881973 944.762146,193.378479 
	C944.772583,213.685394 944.769165,233.992310 944.769165,254.732895 
	C938.269470,254.732895 932.046692,254.732895 925.010315,254.732895 
	C925.010315,253.159927 925.010315,251.410583 925.010315,249.661224 
	C925.010254,232.167358 925.324036,214.664658 924.833252,197.184570 
	C924.669922,191.365540 923.443604,185.123520 920.942017,179.921860 
	C916.422729,170.524628 907.392883,168.963974 897.893677,169.650620 
	C887.715454,170.386383 879.881409,175.275833 876.120728,184.693314 
	C873.836853,190.412430 872.745300,196.911194 872.555969,203.103699 
	C872.072327,218.916702 872.401123,234.754333 872.387024,250.582123 
	C872.385010,252.819229 873.068359,255.606262 868.719604,255.166367 
z"/>
<path fill="#06B4C8" opacity="1.000000" stroke="none" 
	d="
M640.751831,199.622025 
	C646.308838,185.655914 651.785034,172.069534 657.072510,158.410110 
	C658.250183,155.367798 659.743042,153.923508 663.251343,154.167526 
	C668.329468,154.520737 673.450439,154.257965 679.357117,154.257965 
	C676.066528,162.227127 673.125732,169.401093 670.145081,176.558441 
	C659.907715,201.141006 649.595520,225.692749 639.478699,250.324753 
	C638.030457,253.850983 636.363098,255.372955 632.246948,255.294983 
	C617.526489,255.016068 617.638306,255.163147 612.149475,241.415283 
	C601.226990,214.057587 590.161804,186.756836 579.164795,159.428848 
	C578.564392,157.936707 578.049316,156.410217 577.260376,154.262299 
	C583.841309,154.262299 589.802307,154.072342 595.732788,154.412842 
	C597.012024,154.486282 598.782043,156.239304 599.312073,157.610596 
	C608.311951,180.891495 617.148621,204.235458 626.034363,227.560532 
	C626.532837,228.868866 627.143677,230.134384 628.033020,232.181305 
	C632.443604,220.880661 636.523193,210.428024 640.751831,199.622025 
z"/>
<path fill="#07B4C9" opacity="1.000000" stroke="none" 
	d="
M783.932373,150.000000 
	C783.932373,185.118027 783.932373,219.736069 783.932373,254.763290 
	C777.411255,254.763290 771.183105,254.763290 764.522034,254.763290 
	C764.522034,204.571762 764.522034,154.248611 764.522034,103.589409 
	C770.810059,103.589409 777.037598,103.589409 783.932434,103.589409 
	C783.932434,118.987640 783.932434,134.243820 783.932373,150.000000 
z"/>
<path fill="#04B3C8" opacity="1.000000" stroke="none" 
	d="
M715.155029,162.209976 
	C724.619568,152.103317 736.021729,150.811829 748.805908,153.389450 
	C748.805908,159.254364 748.805908,165.002487 748.805908,171.513260 
	C746.096802,171.513260 743.340637,171.497910 740.584778,171.515717 
	C722.048523,171.635498 711.033081,182.513550 710.880249,201.110123 
	C710.748840,217.105164 710.852173,233.102158 710.851624,249.098282 
	C710.851562,250.897842 710.851624,252.697403 710.851624,254.829758 
	C704.201416,254.829758 697.962708,254.829758 691.389404,254.829758 
	C691.389404,221.599930 691.389404,188.357056 691.389404,154.486664 
	C696.670593,154.486664 701.966370,154.323166 707.233643,154.637573 
	C708.180298,154.694077 709.543030,156.616791 709.785522,157.859024 
	C710.349792,160.750122 710.348206,163.751694 710.668030,167.903412 
	C712.581787,165.455444 713.746887,163.965103 715.155029,162.209976 
z"/>
<path fill="#03B3C8" opacity="1.000000" stroke="none" 
	d="
M828.255493,229.000031 
	C828.255554,237.799713 828.255554,246.099411 828.255554,254.779587 
	C821.755188,254.779587 815.554504,254.779587 809.046509,254.779587 
	C809.046509,221.480148 809.046509,188.291550 809.046509,154.684937 
	C815.268677,154.684937 821.453918,154.684937 828.255432,154.684937 
	C828.255432,179.372406 828.255432,203.936218 828.255493,229.000031 
z"/>
<path fill="#08B4C9" opacity="1.000000" stroke="none" 
	d="
M805.268066,117.191849 
	C806.790283,109.603905 810.795349,105.475395 816.781494,104.950378 
	C822.804626,104.422119 827.804626,107.275482 830.062561,112.529633 
	C833.190063,119.807381 829.667847,127.554382 822.057251,130.136932 
	C815.318787,132.423553 807.641541,128.174377 805.709290,121.035797 
	C805.409241,119.927353 805.389709,118.742973 805.268066,117.191849 
z"/>
<path fill="#04B3C8" opacity="1.000000" stroke="none" 
	d="
M531.000000,195.669312 
	C519.741455,195.669128 508.982971,195.669128 498.217224,195.669128 
	C498.712708,179.774307 510.782684,166.964432 529.322205,167.972580 
	C545.129944,168.832214 556.547607,180.850388 554.726135,195.669495 
	C547.047485,195.669495 539.273743,195.669495 531.000000,195.669312 
z"/>
</svg>